<svg width="1931" height="842" viewBox="0 0 1931 842" fill="none" xmlns="http://www.w3.org/2000/svg">
<path d="M64.5 794L1 804.5V1H1930V805H1754.5C1766.5 795.833 1785.39 741 1762 704.5C1729 653 1659.17 669.833 1625 686V621.5C1427.5 610 1086.5 594.5 1047.5 630.5C1036 641.115 1055.33 762.833 1061.5 804.5H984.5L933.5 794L915 804.5H856.5H804L730.5 794L672.5 804.5H587.5H516C507.333 801 488.1 794 480.5 794H459.5L441 804.5H390H245.5H147.5L64.5 794Z" fill="black" stroke="black"/>
<path d="M1668 700.5C1645.5 711.75 1641.17 730.5 1639 740C1637.63 746 1632.9 759.1 1624.5 763.5C1614 769 1614 774.5 1616 781.5C1618.06 788.711 1591.43 835.691 1597.5 841C1601.5 844.5 1667.88 828.05 1688.5 817.5C1710 806.5 1729.5 791.5 1735.5 781.5C1741.33 771.78 1751.57 759.784 1744.5 731.5C1738.5 707.5 1698 685.5 1668 700.5Z" fill="black" stroke="black"/>
</svg>
