<svg width="4149" height="1779" viewBox="0 0 4149 1779" fill="none" xmlns="http://www.w3.org/2000/svg">
<path d="M863.5 1778H45.5L20.5 1778.5L1 0.5H4148.5L4144.5 1776.5H3228.5L3236.5 1760L3300.5 1702.5L3401 1604L3452 1548C3453.17 1548.33 3457.4 1549 3465 1549C3472.6 1549 3488.83 1554.33 3496 1557C3495.17 1556 3493.5 1553.8 3493.5 1553C3493.5 1552.2 3469.17 1544 3457 1540L3469.5 1527.5L3491 1502L3517 1480L3539 1470L3557.5 1464L3570.5 1458C3562.33 1458.5 3544.3 1459.7 3537.5 1460.5C3530.7 1461.3 3507 1474.83 3496 1481.5L3502.5 1472L3523 1454L3570.5 1431.5L3555.5 1435L3523 1445.5C3516.33 1449 3502.9 1455.9 3502.5 1455.5C3502.1 1455.1 3487.33 1470 3480 1477.5V1472L3478.5 1477.5C3474 1483.17 3463.4 1495.2 3457 1498C3449 1501.5 3450 1490 3449 1489.5C3448 1489 3444 1501.5 3442 1503C3440 1504.5 3428 1511.5 3419.5 1517.5C3411 1523.5 3410.5 1526 3410.5 1519.5C3410.5 1513 3407.5 1511 3406 1511.5C3404.5 1512 3402.5 1524.5 3401 1527.5C3399.5 1530.5 3367 1546.5 3363 1548C3359 1549.5 3362.5 1538 3361 1538C3359.5 1538 3355 1548.5 3355 1550.5C3355 1552.5 3341 1558.5 3336.5 1558.5C3332 1558.5 3332 1563.5 3329.5 1567C3327 1570.5 3323 1565 3319.5 1567C3316.7 1568.6 3316.67 1571.67 3317 1573L3308 1578V1567C3306.83 1567 3304 1567.5 3302 1569.5C3299.5 1572 3302.5 1578 3300 1581C3297.5 1584 3264.5 1603.5 3259.5 1604.5C3255.5 1605.3 3259.17 1595.5 3261.5 1590.5C3262.5 1589.17 3264.5 1586.2 3264.5 1585C3264.5 1583.5 3263 1582.5 3261.5 1578C3260.3 1574.4 3304 1561.83 3326 1556L3300 1554L3282 1558.5L3261.5 1565L3259.5 1563.5C3258.67 1559.17 3257.5 1549.7 3259.5 1546.5C3262 1542.5 3259.5 1541 3259.5 1540.5C3259.5 1540 3261.5 1532.5 3259.5 1530.5C3257.5 1528.5 3257 1524.5 3257 1519C3257 1514.6 3260 1508.17 3261.5 1505.5C3261.83 1503.83 3262.6 1500.3 3263 1499.5C3263.5 1498.5 3264.5 1491.5 3264.5 1490C3264.5 1488.5 3267 1484.5 3267 1481C3267 1478.2 3270.67 1473.17 3272.5 1471L3270 1469C3268.67 1470.33 3265.7 1473.1 3264.5 1473.5C3263 1474 3255.5 1487.5 3252.5 1496.5C3250.1 1503.7 3246.83 1508.17 3245.5 1509.5L3241.5 1515.5C3242.17 1518.33 3243.1 1524.9 3241.5 1528.5C3239.5 1533 3237 1539 3237.5 1550.5C3238 1562 3231.5 1571.5 3230 1571.5C3228.5 1571.5 3211.5 1575 3207.5 1576C3204.3 1576.8 3206.17 1572 3207.5 1569.5L3209 1563.5C3208.17 1564.17 3206 1565.8 3204 1567C3202 1568.2 3202.17 1574.83 3202.5 1578C3195.5 1582.17 3180.7 1590.5 3177.5 1590.5C3174.3 1590.5 3177.83 1584.17 3180 1581C3179.33 1580.67 3177.4 1580.5 3175 1582.5C3172.6 1584.5 3171.67 1591.33 3171.5 1594.5C3163.83 1600.67 3147.9 1613.3 3145.5 1614.5C3143.1 1615.7 3142.83 1614 3143 1613L3148.5 1602C3148 1602.67 3146.2 1604.4 3143 1606C3139 1608 3137 1620 3136.5 1623C3136.1 1625.4 3119.67 1636.33 3111.5 1641.5C3111 1642.67 3109.5 1644.3 3107.5 1641.5C3105 1638 3111 1628 3110 1628C3109 1628 3104.5 1633 3103 1636.5C3101.8 1639.3 3103.5 1647 3104.5 1650.5L3073.5 1681L3076 1668.5L3086.5 1628L3091.5 1609.5C3092.5 1608.5 3094.6 1606 3095 1604C3095.5 1601.5 3104.5 1595.5 3104.5 1594.5V1589C3102.67 1590 3099 1591.4 3099 1589C3099 1586.6 3100.33 1583.67 3101 1582.5C3102.17 1581.17 3104.8 1578 3106 1576C3107.2 1574 3105.5 1572.17 3104.5 1571.5C3109.67 1557.5 3120.1 1529 3120.5 1527C3120.9 1525 3125.67 1521.5 3128 1520H3123.5L3159.5 1430C3162.33 1424.17 3168 1412.1 3168 1410.5C3168 1408.5 3173.5 1408 3174.5 1407.5C3175.5 1407 3177 1406.5 3176.5 1404.5C3176.1 1402.9 3171.67 1403.5 3169.5 1404C3171.83 1399.83 3176.6 1391.1 3177 1389.5C3177.5 1387.5 3182 1379.5 3182.5 1376C3183 1372.5 3194 1374 3198 1374C3202 1374 3196.5 1370 3195 1368C3193.5 1366 3190 1368 3188 1367C3186 1366 3187.5 1364.5 3188 1361.5C3188.5 1358.5 3190.5 1358 3192 1358C3193.5 1358 3198 1355 3199 1354C3200 1353 3201.5 1348.5 3201.5 1346.5C3201.5 1344.5 3199.5 1345 3198 1343C3196.5 1341 3198 1340.5 3200.5 1340.5C3202.5 1340.5 3204.33 1339.83 3205 1339.5C3205.33 1338.17 3206.4 1335.3 3208 1334.5C3209.6 1333.7 3209 1331.5 3208.5 1330.5V1327.5L3212.5 1322L3216.5 1316.5L3219.5 1313L3222 1307.5L3227.5 1301L3235.5 1296.5V1290.5C3235 1289.67 3233.5 1287.6 3231.5 1286C3229.5 1284.4 3230.67 1281.67 3231.5 1280.5H3225C3223.5 1281.33 3220.8 1283.4 3222 1285C3223.2 1286.6 3218.83 1290.67 3216.5 1292.5L3207 1304C3203.5 1307.33 3195.1 1314.9 3189.5 1318.5C3183.9 1322.1 3174.83 1323.67 3171 1324V1331H3168L3171 1335.5L3164.5 1341L3166 1346C3165.5 1346.67 3164.2 1348.2 3163 1349C3161.8 1349.8 3159.17 1357.33 3158 1361C3154.7 1364.8 3149.19 1371.38 3147.62 1373.96C3147.95 1374.45 3147.95 1374.82 3147.5 1375C3147.02 1375.19 3147.13 1374.78 3147.62 1373.96C3146.12 1371.71 3137.7 1366.91 3134 1366.5C3129.5 1366 3138 1378 3140 1381C3142 1384 3133 1388.5 3129.5 1390.5C3126 1392.5 3130 1393.5 3130.5 1397C3131 1400.5 3124.5 1399 3120.5 1403C3117.3 1406.2 3112.83 1417.33 3111 1422.5L3103 1414C3102.83 1414.5 3102.3 1415.8 3101.5 1417C3100.5 1418.5 3104.5 1425.5 3104 1428C3103.5 1430.5 3096.5 1431.5 3094.5 1435C3092.5 1438.5 3093 1442 3093 1443C3093 1444 3085.5 1451.5 3075.5 1452C3067.5 1452.4 3072.83 1444.5 3076.5 1440.5L3081 1428L3087 1418.5C3091.17 1412.83 3099.5 1401.4 3099.5 1401C3099.5 1400.5 3097 1402.5 3092 1403C3087 1403.5 3094.5 1394.5 3099.5 1390.5C3103.5 1387.3 3108.17 1381.83 3110 1379.5C3107.83 1380.17 3102.9 1381.4 3100.5 1381C3098.1 1380.6 3102.5 1373.17 3105 1369.5L3119.5 1354.5L3115.5 1352L3117.5 1341L3126.5 1318.5C3127.5 1316 3132.5 1308 3134 1306C3135.5 1304 3132.5 1301 3129 1301C3126.2 1301 3122.17 1308 3120.5 1311.5C3117 1316.67 3108.7 1328 3103.5 1332C3097 1337 3094.5 1342.5 3092 1348C3089.5 1353.5 3085 1350 3084 1348C3083 1346 3089 1340 3092 1338C3094.4 1336.4 3094.67 1326 3094.5 1321L3099 1306L3103.5 1297C3105.5 1291.83 3109.6 1281.1 3110 1279.5C3110.5 1277.5 3113.5 1271 3115.5 1269.5C3117.5 1268 3119 1253 3120.5 1247C3121.7 1242.2 3119 1241 3117.5 1241C3116 1244.33 3113.1 1251.7 3113.5 1254.5C3114 1258 3111.5 1272.5 3107.5 1271C3103.5 1269.5 3098 1276.5 3094.5 1283C3091 1289.5 3082 1303.5 3070.5 1316C3061.3 1326 3055 1330.83 3053 1332C3052.5 1332.83 3051.1 1328.3 3049.5 1303.5C3047.5 1272.5 3055 1254.5 3058.5 1241C3061.3 1230.2 3070 1226.17 3074 1225.5H3070.5C3067 1227.17 3059.7 1230.6 3058.5 1231C3057.3 1231.4 3050.67 1240.5 3047.5 1245L3022.5 1291.5L3013.5 1286.5L3018.5 1297L3002 1330.5L2988 1321L2999 1338C2993.33 1351.67 2981.9 1379.2 2981.5 1380C2981.1 1380.8 2973.67 1376.33 2970 1374L2968 1375.5C2970.33 1379.5 2975.4 1388 2977 1390C2979 1392.5 2967.5 1405.5 2965.5 1408C2963.5 1410.5 2967 1414.5 2965.5 1423C2964.3 1429.8 2962 1429.17 2961 1428L2952.5 1419.5L2950 1423L2961 1439C2958.67 1446.83 2953.9 1463.1 2953.5 1465.5C2953.1 1467.9 2949.33 1477.17 2947.5 1481.5H2943C2941.5 1479.67 2938 1475.9 2936 1475.5C2933.5 1475 2936 1480 2938.5 1481.5C2941 1483 2943 1484.5 2936 1485.5C2930.4 1486.3 2933.67 1488.83 2936 1490L2943 1498C2940.5 1502.67 2934.4 1513 2930 1517C2924.5 1522 2923.5 1511.5 2921.5 1510.5C2919.9 1509.7 2924.17 1497.83 2926.5 1492C2926.83 1489.5 2927.3 1483.6 2926.5 1480C2925.7 1476.4 2928.5 1470.83 2930 1468.5L2933 1458.5L2931 1452.5C2929.17 1451.83 2924.7 1451.7 2921.5 1456.5C2918.3 1461.3 2914.17 1477.17 2912.5 1484.5L2908 1474L2904 1462.5V1456.5L2911.5 1450.5H2907L2900 1452.5C2898.33 1445.67 2894.5 1431.2 2892.5 1428C2890.5 1424.8 2895.67 1420.33 2898.5 1418.5V1414.5L2891.5 1418.5H2887.5L2883.5 1409.5L2881 1400L2872.5 1385C2870.67 1375.17 2866.5 1356.4 2864.5 1360C2862.5 1363.6 2865.33 1395.17 2867 1410.5L2859 1409.5L2867 1418.5L2864.5 1446L2855.5 1443L2864.5 1452.5L2861.5 1490L2850.5 1485.5L2861.5 1502.5V1551.5L2850.5 1549.5L2861.5 1557V1569V1610.5L2850.5 1598L2845 1589.5C2843.33 1585.33 2839.8 1577 2839 1577C2838.2 1577 2837 1567.67 2836.5 1563L2830.5 1546C2830.17 1547.17 2828.9 1552.9 2826.5 1566.5C2824.1 1580.1 2820.5 1587.5 2819 1589.5C2819 1586.17 2818.6 1580 2817 1582C2815.4 1584 2817.67 1595.5 2819 1601V1615.5L2814.5 1610.5C2812.17 1603.33 2807.1 1588.1 2805.5 1584.5C2803.9 1580.9 2804.83 1578 2805.5 1577L2810.5 1572L2807.5 1566.5L2797.5 1574.5L2793.5 1566.5C2792.5 1561.83 2790.2 1551.9 2789 1549.5C2787.8 1547.1 2781.5 1538.5 2778.5 1534.5L2782 1529.5C2782.83 1527.33 2784.8 1522.4 2786 1520C2787.2 1517.6 2785.5 1515 2784.5 1514L2782 1515.5L2778.5 1514L2774.5 1523L2766.5 1509C2764.5 1505.5 2761.5 1495 2759 1492.5C2756.5 1490 2752.5 1485.5 2753 1479C2753.4 1473.8 2755.83 1471.83 2757 1471.5L2761.5 1464L2759 1461L2755 1464L2747.5 1468.5L2745.5 1459.5C2744.33 1459 2740.9 1456.9 2736.5 1452.5C2731 1447 2733.5 1443 2733.5 1439.5C2733.5 1436.7 2736.83 1435.33 2738.5 1435L2736.5 1428.5L2749.5 1418.5L2757 1413L2755 1410.5L2742 1414.5C2737.67 1418.67 2727.4 1427.3 2721 1428.5C2714.6 1429.7 2715.67 1428 2717 1427L2724 1409.5L2729 1393.5L2733.5 1378.5L2736.5 1370C2737.5 1365.83 2739.5 1357.1 2739.5 1355.5C2739.5 1353.5 2742 1345 2742 1344V1326C2742 1322.5 2741.5 1310.5 2742 1307.5C2742.5 1304.5 2739.5 1298 2739.5 1296.5C2739.5 1295 2736 1288.5 2735 1286C2734 1283.5 2733.5 1278.5 2730.5 1274.5C2728.1 1271.3 2726.5 1262.83 2726 1259L2724 1262.5L2723 1271C2722.33 1272 2721 1275.3 2721 1280.5C2721 1285.7 2724.33 1289.67 2726 1291L2730.5 1295V1302.5L2726 1307.5L2723 1317L2721 1322.5L2723 1329.5L2721 1337.5H2717L2712 1346.5L2707 1357.5L2700.5 1364.5L2699 1375L2690 1387L2687 1385L2688.5 1380V1375L2684.5 1377L2679.5 1372.5L2673.5 1366V1360L2669.5 1355.5H2663L2640 1331.5L2630 1327.5C2632.33 1330.67 2638.3 1338.9 2643.5 1346.5C2650 1356 2654.5 1384.5 2654.5 1387C2654.5 1389 2651.83 1387.83 2650.5 1387H2646V1391C2649.33 1392.5 2655.7 1395.9 2654.5 1397.5C2653 1399.5 2652 1405.5 2654.5 1408.5C2656.5 1410.9 2656.33 1416.17 2656 1418.5L2649 1423V1421V1416.5L2646 1418.5L2643.5 1425L2641.5 1428.5L2639.5 1427L2638.5 1419.5V1413C2637.83 1412.33 2636.2 1411.1 2635 1411.5C2633.8 1411.9 2633.17 1415 2633 1416.5C2633.17 1423.33 2633.4 1437.5 2633 1439.5C2632.6 1441.5 2630.83 1442.67 2630 1443L2624 1449.5L2615 1454.5V1450.5V1443L2613.5 1437V1426L2611.5 1422V1418.5L2616.5 1415.5L2618 1408.5L2615 1405.5L2610 1405L2605 1402.5L2602 1400.5L2598 1409.5L2597 1417.5L2598 1425L2597.5 1436L2597 1450.5L2598.5 1468L2598 1474.5L2592 1479L2588 1475.5C2587.17 1474.5 2585.6 1472.3 2586 1471.5C2586.4 1470.7 2586.83 1469.17 2587 1468.5V1464L2582.5 1463.5L2578.5 1467.5L2573.5 1463.5L2567.5 1460L2566 1454.5C2564.5 1454 2561.3 1453 2560.5 1453C2559.7 1453 2557.83 1450.67 2557 1449.5L2549 1444L2543.5 1439.5L2539 1435L2535.5 1431.5L2531 1426C2529.83 1423.33 2527.4 1417.7 2527 1416.5C2526.6 1415.3 2522.83 1406.33 2521 1402L2514.5 1390L2505 1382.5L2507 1385L2511 1393.5C2509.67 1396.33 2506.6 1402 2505 1402H2500.5C2498.17 1398.5 2493.4 1391.2 2493 1390C2492.6 1388.8 2491.5 1386.17 2491 1385L2486 1379.5L2488.5 1376V1371.5H2486L2483 1377.5L2479.5 1369.5C2475.83 1363 2468.1 1349.8 2466.5 1349C2464.5 1348 2456.5 1331 2456 1330C2455.6 1329.2 2451.17 1322 2449 1318.5L2440.5 1310.5L2444.5 1320.5L2453 1340.5L2461 1355.5L2466.5 1376L2477 1407L2498.5 1451L2513 1476.5L2534.5 1510L2542 1519.5L2541 1523.5L2534.5 1535.5L2528 1547C2526.17 1550.33 2522 1557.3 2520 1558.5C2518 1559.7 2517.17 1558 2517 1557H2513V1564L2506.5 1567L2503.5 1566L2506.5 1561L2513 1553.5L2516 1549.5L2522.5 1540.5L2524.5 1536.5L2522.5 1535.5C2518.17 1539.5 2509.4 1547.6 2509 1548C2508.6 1548.4 2501.17 1556.83 2497.5 1561L2491 1562L2483 1555C2482.5 1553.83 2481.5 1551.1 2481.5 1549.5C2481.5 1547.9 2480.83 1544.5 2480.5 1543C2478.33 1540.5 2473.7 1535.3 2472.5 1534.5C2471.3 1533.7 2470 1534.83 2469.5 1535.5C2469.67 1536.83 2470.1 1539.7 2470.5 1540.5C2471 1541.5 2470 1545.5 2468.5 1545.5C2467 1545.5 2459.5 1540 2458 1539.5C2456.8 1539.1 2445.17 1528.67 2439.5 1523.5L2434.5 1519.5V1516.5C2434.5 1515.5 2433.5 1511.5 2433 1511.5C2432.6 1511.5 2429.83 1506.5 2428.5 1504L2425 1503V1511.5L2417.5 1506.5L2407.5 1498.5C2405.33 1497.17 2400.6 1494.2 2399 1493C2397 1491.5 2394 1488 2393.5 1487.5C2393.1 1487.1 2392.33 1484.67 2392 1483.5V1475.5L2388 1467.5H2384L2381.5 1478L2377 1475.5L2370 1469.5L2363.5 1463V1459V1450L2366 1441L2368.5 1435.5L2366 1432.5V1426.5V1418L2367 1407V1396.5L2368.5 1390L2371.5 1384L2368.5 1380V1371.5V1364V1356.5L2370 1350.5L2373.5 1344L2377 1330H2373.5L2370 1326L2371.5 1320L2373.5 1308.5V1299L2375 1291.5L2371.5 1285.5L2375 1279.5L2371.5 1277.5V1273.5V1262.5V1259.5L2368.5 1247V1241L2366 1232.5V1213.5V1202.5V1191V1184L2364 1180L2359 1191L2357.5 1206.5L2354.5 1219.5L2352.5 1226V1232.5L2350.5 1238V1245L2352.5 1255.5L2350.5 1262.5L2347.5 1273.5V1285.5H2340L2336 1279.5V1285.5L2341.5 1291.5V1299C2340.17 1303 2337.2 1311.4 2336 1313C2334.8 1314.6 2332.83 1310.67 2332 1308.5H2327C2327.67 1310 2329.1 1313.3 2329.5 1314.5C2329.9 1315.7 2334 1322.67 2336 1326L2333.5 1333L2327 1347.5L2323 1354.5L2319.5 1350.5L2316 1347.5V1350.5C2317.17 1353.33 2319.5 1359.4 2319.5 1361V1369.5C2316.33 1376 2310 1389.5 2310 1391.5C2310 1393.5 2303.33 1400.33 2300 1403.5L2290.5 1401L2282 1396.5L2279 1391.5L2282 1387V1380H2279V1376.5L2282 1371.5L2288 1359L2294 1350.5L2298 1342.5L2304.5 1334.5L2310 1327.5L2316 1324V1320L2310 1324L2298 1334.5C2296.33 1336.5 2292.8 1340.6 2292 1341C2291.2 1341.4 2286.67 1347.5 2284.5 1350.5C2281.67 1355.17 2275.7 1365 2274.5 1367C2273.3 1369 2269 1374.17 2267 1376.5L2262 1382L2258 1380C2256.4 1379.2 2251.67 1376 2249.5 1374.5L2240.5 1369.5L2234.5 1367L2223 1364L2219.5 1361.5L2221.5 1358.5L2223 1352H2220.5L2213.5 1347.5L2208.5 1343.5L2204.5 1347.5L2198.5 1355.5L2195 1353.5L2189 1352V1355.5L2196 1364V1369.5L2192.5 1384.5L2189 1398.5L2186.5 1412L2183.5 1425.5L2181 1432.5H2175.5L2172 1427.5L2170 1426.5L2167.5 1428.5L2172 1435.5L2175.5 1441L2173.5 1451L2170 1463L2167.5 1464.5L2162 1459L2159.5 1456.5L2158 1460L2161 1469.5L2164.5 1475.5L2162 1486L2157 1501C2156.5 1502.5 2153.5 1506 2152.5 1506C2151.7 1506 2148.83 1504 2147.5 1503H2145L2143.5 1506V1501V1492.5V1482.5L2140 1478H2136.5V1482.5L2133.5 1489.5L2132.5 1499.5C2132.5 1501.67 2132.3 1506.3 2131.5 1507.5C2130.7 1508.7 2129.17 1510.33 2128.5 1511L2124 1516.5L2119.5 1511L2117 1503L2114 1495L2110 1482.5L2112.5 1480.5L2114 1478L2119.5 1475.5V1472L2114 1469.5L2111.5 1472L2107.5 1473.5L2104.5 1467.5V1464.5L2102.5 1460C2101.17 1458.67 2098.5 1455.7 2098.5 1454.5C2098.5 1453.3 2097.5 1451.67 2097 1451V1446.5L2098.5 1445L2102.5 1443L2104.5 1441L2102.5 1438.5L2097 1435.5C2095.83 1436.17 2093.3 1437.5 2092.5 1437.5H2089.5L2086.5 1433.5L2084.5 1430.5L2083 1425.5L2079 1416.5L2077.5 1413.5L2081 1412V1408H2077.5L2073 1409L2070 1408L2068 1405V1398.5L2070 1394L2071 1390.5L2079 1384.5V1382L2075 1383H2070V1379.5L2075 1371.5L2079 1364L2081 1360L2082.5 1354.5L2087.5 1347.5L2093 1335L2095.5 1327.5L2099 1325L2101 1321.5L2099 1319.5L2094.5 1321.5L2087.5 1327.5L2077.5 1338.5L2071 1347.5L2064.5 1355.5L2058.5 1366L2053.5 1370.5L2052 1368V1364L2049 1358.5L2043 1352L2039.5 1347.5L2041.5 1352C2042 1353.67 2043 1357.3 2043 1358.5V1361L2039.5 1362V1366L2041.5 1370.5L2045 1376V1379.5L2041.5 1382L2038 1378L2034.5 1374.5V1361L2037 1358.5L2038 1354.5H2034.5L2029.5 1355.5C2028.17 1354.33 2025.5 1351.8 2025.5 1351V1341.5L2021 1323.5L2019.5 1317.5C2017.5 1314.83 2013.4 1309.2 2013 1308C2012.5 1306.5 2010 1300.5 2009.5 1299.5C2009.1 1298.7 2007 1295.5 2006 1294L1996.5 1286.5L1990.5 1283L1982 1282L1985.5 1284.5L1993.5 1290L1996.5 1295.5L1998.5 1304V1309.5L2000.5 1317.5L1999.5 1323.5L2000.5 1331.5C2000.17 1332.83 1999.3 1335.5 1998.5 1335.5C1997.7 1335.5 1996.5 1333.83 1996 1333L1993.5 1335.5L1996 1339.5L1999.5 1345V1368L1998 1372.5L1994.5 1369C1994.1 1368.6 1992.67 1366.17 1992 1365H1989L1990 1369L1993.5 1376L1998 1383V1391L1996.5 1401.5V1414.5C1996.17 1416.17 1995.3 1419.4 1994.5 1419C1993.7 1418.6 1991.5 1415.83 1990.5 1414.5L1987.5 1412.5L1986 1414.5L1990 1423L1993.5 1428.5L1995.5 1433V1441L1994.5 1448.5V1456.5V1467.5C1994.5 1467.9 1992.5 1465.67 1991.5 1464.5L1987 1462.5L1985 1459.5L1982.5 1460.5V1463.5L1987.5 1469L1993.5 1474V1478.5C1993.33 1480.5 1992.9 1484.6 1992.5 1485C1992.1 1485.4 1993.67 1489.17 1994.5 1491L1997 1500.5L1995.5 1506.5C1993.67 1510.67 1990 1519.1 1990 1519.5C1990 1519.9 1987.33 1523.67 1986 1525.5L1983 1524L1981 1520.5L1977.5 1517L1976 1513.5L1975 1506.5L1971.5 1500.5L1966 1497H1964L1962 1502L1958 1497C1956.17 1494.67 1952.2 1489.8 1951 1489C1949.8 1488.2 1946.5 1482.33 1945 1479.5L1942 1475.5V1469.5V1464.5L1941 1460.5L1939 1459.5C1937.83 1458.83 1935.3 1457.3 1934.5 1456.5L1932.5 1454.5C1931.67 1454 1929.8 1453 1929 1453H1926V1452V1449.5L1924.5 1446.5C1924 1445.5 1921.5 1442.5 1920.5 1441C1919.7 1439.8 1918.5 1438.5 1918 1438C1917 1436.83 1914.9 1434.2 1914.5 1433C1914 1431.5 1913.5 1431 1912 1429.5C1910.8 1428.3 1909.17 1425.67 1908.5 1424.5L1907.5 1421V1418L1908.5 1414.5C1908 1413.83 1906.8 1412.2 1906 1411C1905.2 1409.8 1903.33 1409.17 1902.5 1409L1898.5 1404.5L1893.5 1400L1891 1399L1887.5 1397L1886 1394.5L1884.5 1389.5L1886 1386.5V1383.5L1884.5 1382.5L1882 1383.5H1880L1877.5 1382.5L1875 1380.5L1877.5 1378.5V1375C1877.5 1374.2 1876.5 1373 1876 1372.5L1875 1369.5L1873 1367L1868.5 1364.5L1867 1363C1866.5 1362.33 1865.4 1360.8 1865 1360L1863.5 1357L1861 1356L1858.5 1353.5C1858.17 1352.17 1857.5 1349.3 1857.5 1348.5C1857.5 1347.7 1858.17 1345.5 1858.5 1344.5L1855.5 1346L1851 1344.5C1849.5 1344 1849 1343 1847.5 1342C1846 1341 1845 1340 1845 1339C1845 1338.2 1844.33 1336.33 1844 1335.5V1333L1841.5 1331.5L1837.5 1327L1835.5 1325L1832 1321.5V1319.5L1828 1316L1826.5 1311L1824 1308.5L1821 1307L1819.5 1303V1299H1816L1813 1297L1809 1291.5L1810 1287C1810.67 1284.83 1812 1280.2 1812 1279C1812 1277.5 1813.5 1273.5 1814 1272C1814.4 1270.8 1815.5 1266.17 1816 1264L1819.5 1253.5L1824 1246.5L1826.5 1240L1831 1234L1833.5 1229C1834.33 1228 1836.1 1225.9 1836.5 1225.5C1836.9 1225.1 1838 1223.33 1838.5 1222.5L1838 1220.5H1835.5L1831.5 1224.5L1827.5 1229.5L1821 1237L1816.5 1244.5C1815.17 1246.33 1812.4 1250.1 1812 1250.5C1811.5 1251 1809.5 1256 1809 1257C1808.6 1257.8 1805.83 1262.33 1804.5 1264.5L1802 1271.5C1800.83 1273.67 1798.5 1278.2 1798.5 1279C1798.5 1279.8 1797.5 1279.33 1797 1279L1795.5 1277.5L1793.5 1275.5C1791.17 1274.67 1786.5 1272.8 1786.5 1272C1786.5 1271.2 1780.83 1269 1778 1268C1778.5 1264.33 1779.5 1256.6 1779.5 1255C1779.5 1253.4 1782.5 1237.67 1784 1230C1784.67 1221.17 1786.1 1202.7 1786.5 1199.5C1786.9 1196.3 1784.33 1180.83 1783 1173.5C1781.83 1169.5 1779.4 1160.9 1779 1158.5C1778.6 1156.1 1775.83 1147.83 1774.5 1144L1769.5 1134.5C1769.5 1133 1769.2 1129.7 1768 1128.5C1766.5 1127 1765 1123 1765 1122C1765 1121 1760.5 1116.5 1759 1115.5C1757.5 1114.5 1754.5 1112 1754.5 1110.5C1754.5 1109 1748.5 1105.5 1748 1105C1747.6 1104.6 1745.17 1103.5 1744 1103C1744 1104.17 1743.7 1107.3 1742.5 1110.5C1741.3 1113.7 1743 1115.17 1744 1115.5L1750 1119L1754.5 1125.5L1759 1133.5L1763.5 1142.5L1768 1150V1161.5L1769.5 1178V1189C1769.33 1193 1768.8 1202.2 1768 1207C1767.2 1211.8 1764.67 1211.33 1763.5 1210.5L1759 1211.5V1217V1224.5L1761 1226.5L1762 1230L1761 1241.5L1757 1252L1754.5 1255L1752 1262.5H1750L1747.5 1257V1252H1744.5L1741 1255L1742 1259.5L1744.5 1267L1746 1276L1744.5 1278.5L1741 1284V1289.5V1295.5L1738.5 1301.5H1735.5V1295.5C1734.67 1294.83 1732.5 1293.3 1730.5 1292.5C1728.5 1291.7 1727.33 1292.17 1727 1292.5L1726 1298.5C1726.33 1298.83 1727 1300.2 1727 1303V1309L1726 1313C1727 1315.67 1729 1321.1 1729 1321.5V1328.5C1729 1329.3 1727.67 1331.17 1727 1332L1722.5 1341L1719 1347L1717.5 1353L1716.5 1358L1714.5 1356L1713.5 1354L1711.5 1350.5H1708L1709.5 1353V1358V1364.5C1709.5 1365.3 1710.83 1367.17 1711.5 1368L1710.5 1372.5L1708 1370L1705.5 1366.5L1703.5 1360H1701.5L1699.5 1361.5L1698 1366.5L1699.5 1374L1700.5 1379.5L1703.5 1383.5V1386.5L1700.5 1390C1699.5 1391.17 1697.4 1393.6 1697 1394C1696.6 1394.4 1694.17 1396.17 1693 1397L1691 1395.5L1689 1391.5L1686.5 1387.5L1685 1383.5L1683.5 1379.5V1377L1685 1374L1690 1371.5L1694 1368L1693 1366.5L1687.5 1370L1682 1374L1683.5 1364.5L1682 1362.5L1678.5 1366.5L1676.5 1362.5L1674 1354V1349.5L1675.5 1346V1340L1678.5 1324.5L1680 1314L1682 1304L1683.5 1296.5C1684 1292.67 1685 1284.8 1685 1284V1280H1683.5L1682 1281.5L1680 1288.5L1678.5 1292.5L1676.5 1295.5L1675.5 1301.5C1674.67 1304.33 1672.8 1310.3 1672 1311.5C1671.2 1312.7 1670.33 1316 1670 1317.5L1668.5 1322.5C1668 1321.17 1666.8 1318.3 1666 1317.5C1665.2 1316.7 1665.67 1314.17 1666 1313L1664 1305L1661 1297.5L1658 1291C1657.33 1289.67 1656 1286.9 1656 1286.5C1656 1286.1 1655.33 1284 1655 1283L1652.5 1284L1656 1292.5C1656.67 1294.17 1658 1297.7 1658 1298.5C1658 1299.3 1659 1304.5 1659.5 1307L1661 1316.5L1662 1332L1663 1341V1346L1661 1354L1659.5 1360L1658.5 1368V1376L1657 1387.5V1395.5L1658.5 1406.5C1659 1409.83 1659.9 1416.9 1659.5 1418.5C1659.1 1420.1 1658.67 1421.17 1658.5 1421.5L1655.5 1415H1654.5V1419.5L1655.5 1428C1655.33 1429.5 1654.9 1432.7 1654.5 1433.5C1654 1434.5 1653.5 1437 1653 1438C1652.6 1438.8 1651.5 1439.67 1651 1440H1649.5L1645.5 1441.5L1642.5 1440V1437C1642.33 1436.17 1641.9 1434.3 1641.5 1433.5C1641 1432.5 1640.5 1428.5 1640 1428C1639.6 1427.6 1639.83 1425.5 1640 1424.5C1639.67 1422.5 1638.9 1418.3 1638.5 1417.5C1638 1416.5 1637.5 1413 1637 1411.5C1636.5 1410 1636 1406.5 1636 1405V1401.5L1633.5 1398L1630 1397L1627.5 1395.5V1392.5L1626 1388.5L1625 1385L1623.5 1381.5L1621 1385L1623 1392.5V1403L1623.5 1411.5V1417.5L1625 1419.5L1627.5 1423.5L1630 1429V1438V1443.5L1626 1446L1625 1450L1623.5 1451.5L1621 1449L1617.5 1447.5V1443.5V1438V1433.5L1615 1431H1610C1609.2 1431 1608 1429 1607.5 1428L1605.5 1426L1604 1428C1603.67 1429 1602.8 1431 1602 1431C1601 1431 1599.5 1428 1598 1427C1596.8 1426.2 1595.17 1424.33 1594.5 1423.5L1590.5 1418.5V1415L1592.5 1411.5L1594.5 1406.5V1401.5V1395.5C1594.5 1393.5 1591.83 1392.67 1590.5 1392.5H1587.5C1586.5 1393.83 1584.5 1396.8 1584.5 1398V1403.5L1582 1401.5L1578 1392.5L1576.5 1386.5L1580 1385L1584.5 1380L1580 1381.5V1377C1581.5 1376.17 1584.8 1374.4 1586 1374C1587.5 1373.5 1588.5 1371.5 1590.5 1370C1592.1 1368.8 1592.5 1365.83 1592.5 1364.5C1594.83 1363 1599.9 1359.7 1601.5 1358.5C1603.1 1357.3 1605.17 1357 1606 1357L1609 1354L1619.5 1349.5L1618.5 1346C1616 1346.83 1610.6 1348.5 1609 1348.5C1607.4 1348.5 1603.33 1350.83 1601.5 1352C1599.83 1353.67 1596.1 1357 1594.5 1357C1592.9 1357 1587.17 1360.67 1584.5 1362.5L1578 1364.5C1578.67 1363.17 1580 1360.1 1580 1358.5C1580 1356.9 1578.67 1354.83 1578 1354H1572.5L1568.5 1357C1569 1358.83 1570 1362.9 1570 1364.5C1570 1366.5 1567 1366.5 1565 1366.5C1563.4 1366.5 1563 1363.83 1563 1362.5L1560.5 1357L1557 1348.5L1558 1346L1570 1330C1571.2 1328.4 1569.5 1329.33 1568.5 1330L1565 1332L1559 1335L1555 1340L1553.5 1335L1550 1332C1551.17 1331.5 1553.8 1330.4 1555 1330C1556.5 1329.5 1559 1328.5 1559.5 1327.5C1559.9 1326.7 1562 1325.17 1563 1324.5L1565 1317L1568.5 1311.5L1567 1310L1564 1307H1557.5L1555 1308L1553.5 1303.5L1552 1300.5L1553.5 1295.5V1292L1551 1289.5L1552 1285C1552.5 1284.17 1553.5 1282.4 1553.5 1282C1553.5 1281.5 1558 1279.5 1559 1279C1560 1278.5 1562 1277 1562 1276C1562 1275 1564.5 1273.5 1565 1273C1565.4 1272.6 1564.83 1271.5 1564.5 1271L1562 1269C1560.33 1269.5 1556.8 1270.6 1556 1271C1555 1271.5 1552 1274 1551 1274.5C1550.2 1274.9 1549.33 1274 1549 1273.5C1549.17 1272.83 1549.6 1271.3 1550 1270.5C1550.4 1269.7 1552.5 1268.17 1553.5 1267.5L1557 1263L1558 1258L1559 1251L1558 1246.5L1559 1244C1561 1243.33 1565.4 1241.9 1567 1241.5C1568.6 1241.1 1566.33 1240 1565 1239.5L1560.5 1238.5L1555 1240.5L1553.5 1234L1555 1231L1557.5 1226.5V1224L1556 1221.5L1557.5 1218L1559.5 1214.5V1212V1209L1563 1207.5L1564 1205L1565 1200.5L1564 1197.5L1568 1192L1572 1187.5L1574.5 1186.5L1577 1183C1578.83 1182.5 1582.7 1181.3 1583.5 1180.5C1584.5 1179.5 1585.5 1178 1585.5 1177.5C1585.5 1177 1590 1175 1591 1174C1592 1173 1592 1172 1592 1171C1592 1170 1592.5 1167.5 1592.5 1165.5C1592.5 1163.5 1591.5 1163.5 1591 1163C1590.5 1162.5 1589.5 1160.5 1589.5 1158C1590 1157 1591.5 1155.5 1592 1154C1592.5 1152.5 1594 1149.5 1594 1149C1594 1148.5 1596.5 1146 1596.5 1144.5C1596.5 1143.3 1595.83 1143.67 1595.5 1144L1592.5 1144.5L1590 1148L1587.5 1152L1585.5 1156.5H1578.5C1578 1156.5 1575 1160 1574 1160.5C1573.2 1160.9 1574.33 1164 1575 1165.5L1572 1170L1566.5 1176.5L1563 1183C1562 1183.83 1559.9 1185.6 1559.5 1186C1559.1 1186.4 1557 1188.17 1556 1189C1554.83 1191 1552.4 1195.1 1552 1195.5C1551.6 1195.9 1547.83 1198.33 1546 1199.5C1544.5 1201.17 1541.2 1204.6 1540 1205C1538.5 1205.5 1535 1208.5 1534.5 1209.5C1534.1 1210.3 1532.33 1213.5 1531.5 1215L1529.5 1221C1528.17 1222.5 1525.2 1225.9 1524 1227.5C1522.5 1229.5 1521 1228.5 1519.5 1227.5C1518 1226.5 1519.5 1224.5 1519.5 1224C1519.5 1223.5 1518 1223 1515.5 1221C1513 1219 1512 1221.5 1510.5 1221C1509.3 1220.6 1508.33 1222.17 1508 1223L1509.5 1227.5C1509.5 1228.17 1510 1230 1512 1232C1514 1234 1513.5 1235.83 1513 1236.5L1507.5 1245.5L1503 1251.5C1501.83 1253.67 1499 1258.1 1497 1258.5C1495 1258.9 1490.17 1256.67 1488 1255.5L1484 1257L1486 1262L1489.5 1270L1486 1276.5L1478.5 1288.5L1473.5 1296L1470.5 1303L1465 1309L1462 1315L1459.5 1306.5L1453 1303H1449.5L1447.5 1306.5L1449.5 1311.5L1453 1321.5L1457 1324L1453 1330.5L1449.5 1341.5L1444 1350L1438.5 1353L1436 1362.5L1432.5 1365L1431 1370.5V1376L1423.5 1370.5L1418 1365L1414.5 1362.5L1413.5 1367.5L1418 1373.5V1381L1423.5 1387.5L1422 1392.5L1418 1401L1413.5 1410L1409.5 1421L1403.5 1439.5L1400 1433.5L1396 1424.5L1391 1423.5H1388V1433.5L1396 1439.5L1400 1448L1393 1468L1388 1485.5L1387 1495L1385 1501.5L1379 1493.5L1375.5 1489.5V1484.5V1477.5V1471L1379 1466L1385 1459.5L1387 1455.5L1384 1452L1377 1455.5V1452V1442L1387 1429C1385 1429.67 1380.8 1431.2 1380 1432C1379.2 1432.8 1379 1430.33 1379 1429L1380 1424.5L1381 1415.5L1384 1410L1387 1407.5L1391 1403L1384 1405.5L1385 1401V1395.5L1387 1392.5C1388.83 1391.5 1392.6 1389.1 1393 1387.5C1393.4 1385.9 1391.83 1385.83 1391 1386L1384 1387.5L1387 1381L1396 1374.5C1395 1374.17 1392.6 1373.5 1391 1373.5H1379C1377.8 1373.5 1373.83 1376.5 1372 1378L1362 1386L1354.5 1392.5L1346.5 1399L1339.5 1407.5L1333 1403L1328 1401V1404L1333 1407.5V1415.5L1330.5 1421H1326L1318 1429L1316 1423.5V1417.5L1318 1413L1320 1407.5L1313 1403V1396.5L1316 1392.5L1320 1387.5L1322.5 1384L1323.5 1378L1320 1373.5L1316 1370.5L1313 1373.5L1309.5 1384.5V1373.5L1308 1353.5L1306.5 1343.5L1308 1341.5L1312 1338.5L1313 1332.5L1309.5 1324L1306.5 1319.5L1301.5 1324L1300 1322L1298 1313.5V1308L1296 1302V1296.5L1298 1289.5L1303 1286V1275L1301.5 1273L1294.5 1275L1292 1277L1290 1280L1288 1262.5V1257H1290L1292 1252L1294.5 1250.5V1243.5L1292 1241.5L1288 1243.5L1284.5 1247.5V1238L1285.5 1232L1288 1228H1290L1292 1222.5L1290 1219L1284.5 1217.5L1279.5 1220.5L1276 1213.5L1273.5 1204.5V1199V1192.5L1276 1175.5L1271.5 1169.5L1269.5 1165L1273.5 1163.5L1276 1156.5L1269.5 1150.5L1264.5 1147.5L1263 1138L1261 1120L1259.5 1110H1256.5L1253 1117.5L1252 1127V1143.5L1253 1159.5L1252 1175.5V1200.5L1246.5 1217.5L1243 1225C1242.33 1224.17 1240.7 1222.1 1239.5 1220.5C1238.3 1218.9 1236.67 1221.17 1236 1222.5L1238 1231L1243 1238V1257C1242.5 1264 1241.4 1278.4 1241 1280C1240.6 1281.6 1238.83 1282.67 1238 1283L1231.5 1280V1286L1238 1294L1236 1322L1230 1341.5L1227 1339.5L1219.5 1332.5L1215.5 1330L1213 1327V1332.5L1219.5 1339.5L1230 1348V1361.5L1224.5 1384.5L1219.5 1401L1218 1399L1215.5 1401L1218 1407.5L1215.5 1421L1210.5 1448.5H1207L1204 1442.5L1200 1436L1193.5 1438L1195 1447L1202 1455L1207 1463.5V1468.5L1200 1490C1199.17 1499.67 1197.5 1519.2 1197.5 1520C1197.5 1520.8 1194.83 1516 1193.5 1513.5L1188 1506.5V1509.5L1191.5 1521.5L1197.5 1537.5L1195 1558.5L1185 1552L1181 1556L1179 1552L1181 1546L1179 1544L1175 1549.5L1171 1546L1168.5 1539.5L1163 1533L1158.5 1525L1152 1517.5C1150.83 1516.83 1148 1515.4 1146 1515C1144 1514.6 1138.83 1511.17 1136.5 1509.5L1139.5 1505L1142 1499V1495.5L1138 1490L1136.5 1488.5L1133 1493L1129.5 1501L1128 1495.5L1124.5 1491.5C1124.83 1489.83 1125.3 1486.2 1124.5 1485C1123.7 1483.8 1123.17 1482.17 1123 1481.5H1118L1114 1478V1475L1110 1474V1471L1107 1466H1103L1099.5 1462L1095.5 1458L1093 1452.5V1447L1094.5 1442.5L1098 1439.5L1095.5 1438L1096 1434L1095.5 1429L1090 1427.5L1085 1429V1433L1087 1441.5L1085 1444.5C1084.17 1442.67 1082.3 1438.8 1081.5 1438C1080.5 1437 1074 1430.5 1073 1429C1072.2 1427.8 1068.33 1423.17 1066.5 1421L1053 1409L1044.5 1400.5V1395V1388.5L1038.5 1380.5L1037 1383.5V1391.5L1034.5 1388.5L1022.5 1377.5L1003 1357L1005 1353.5L1000 1347H996V1353.5L992 1350.5L970 1333.5L973 1331L970 1327.5L962.5 1320.5L960.5 1322.5L957 1325L955 1322.5L929 1307L910.5 1299C906.833 1298 898.9 1295.5 896.5 1293.5C894.1 1291.5 885.833 1289 882 1288L857.5 1289.5L845.5 1292L850 1293.5H867.5L889 1298L921.5 1318L976.5 1365.5L1031 1441.5L1060 1490H1044.5H1031L1015.5 1491.5L1005 1493L987 1495L983 1498.5L997.5 1501L1032.5 1503L1073.5 1513.5L1092 1542L1120.5 1606.5L1144.5 1668L1154 1693V1700L1144.5 1690.5L1138 1680L1127.5 1668L1129 1666L1131 1663.5L1129.5 1660C1127.17 1658.67 1122.4 1655.9 1122 1655.5C1121.6 1655.1 1121.17 1655.67 1121 1656V1662C1120 1661.33 1117.5 1659.7 1115.5 1658.5C1113.5 1657.3 1097.67 1643.67 1090 1637L1073.5 1625L1075.5 1623L1078 1620.5L1075.5 1618L1070 1614.5H1067.5L1067 1617.5L1063.5 1615L1055.5 1601L1052.5 1594.5L1056 1591L1054 1582.5L1052.5 1578L1048 1576.5C1047.83 1576.83 1047.6 1578.1 1048 1580.5C1048.4 1582.9 1045.83 1586.5 1044.5 1588L1040.5 1580.5C1038.83 1578.17 1035.3 1573.3 1034.5 1572.5C1033.5 1571.5 1028.5 1561 1025.5 1556C1023.1 1552 1019.5 1544 1018 1540.5L1020.5 1534.5V1529L1013 1522H1007.5L1003.5 1529V1534.5L994 1525.5L983 1513.5L969.5 1498.5L958 1487L961 1483L963 1476.5L958 1469C956.167 1468.17 952 1466.2 950 1465C948 1463.8 943.5 1467.17 941.5 1469C939.5 1467.67 935.3 1464.8 934.5 1464C933.5 1463 927.5 1459.5 925.5 1458C923.5 1456.5 919.5 1450.5 918.5 1449.5C917.5 1448.5 905 1438.5 904.5 1437.5C904.1 1436.7 905.333 1434.17 906 1433L908.5 1428.5L903 1419.5H900L898.5 1428.5L867.5 1404.5L840.5 1384.5L812 1365.5L786 1351.5L757 1341L733 1333.5L719 1331L706 1329.5H674.5L656 1335L647.5 1339L641.5 1345H649L674.5 1337.5H702.5L729 1345L751 1357.5L775.5 1374.5L819.5 1412.5L863.5 1455.5L925 1529L957 1571.5L917 1558.5L878 1540.5L845 1525.5V1529L859.5 1538L884 1552.5L920 1574L978.5 1602L990.5 1619L1021 1664L979.5 1625.5L933 1591L884 1558.5C855.667 1543 792.5 1509.4 766.5 1499C734 1486 730.5 1494.5 729 1494C727.8 1493.6 723.167 1497.17 721 1499L716.5 1509L721 1507L724.5 1504.5L736.5 1503L748.5 1507L759 1519L775.5 1534.5C780.333 1540 791.2 1551.9 796 1555.5C800.8 1559.1 805.667 1569.33 807.5 1574V1578L780 1558.5L751 1543.5L710.5 1519C702.833 1514.17 685.7 1503.4 678.5 1499C671.3 1494.6 648.167 1470.83 637.5 1459.5L635 1462L649 1488L702.5 1549C735.667 1576.17 806.4 1634.1 824 1648.5C841.6 1662.9 776.333 1631.83 741.5 1614.5C728.167 1598.5 694.8 1562.3 668 1545.5C641.2 1528.7 610.5 1525.83 598.5 1526.5C613.5 1532.17 648 1546.5 666 1558.5C684 1570.5 695.167 1594.17 698.5 1604.5L669.5 1591L587.5 1554L536.5 1525C521.5 1517.67 491.8 1503.3 493 1504.5C494.5 1506 571 1566 575.5 1571C580 1576 634.5 1608.5 649 1617.5C663.5 1626.5 731.5 1664 741 1669.5C748.6 1673.9 759.5 1683.67 764 1688L807.5 1733L863.5 1778Z" fill="#040404"/>
<path d="M1567 1471L1549 1417.5L1538.5 1433C1542 1433.17 1549.2 1434.1 1550 1436.5C1551 1439.5 1546 1444.5 1538.5 1451.5C1531 1458.5 1535.5 1456.5 1535.5 1461C1535.5 1465.5 1531 1468 1526.5 1469.5C1522.9 1470.7 1524 1475.33 1525 1477.5L1531 1494C1532.5 1496.5 1533.4 1502.7 1525 1507.5C1514.5 1513.5 1515.5 1527 1515 1531.5C1514.6 1535.1 1524.5 1543.33 1529.5 1547L1546 1528.5L1535.5 1518C1537 1514.83 1540.1 1507.1 1540.5 1501.5C1540.9 1495.9 1546.33 1499.17 1549 1501.5C1551.33 1505.5 1556 1512.5 1556 1508.5C1556 1504.5 1563.33 1497.83 1567 1495L1557.5 1485.5L1557 1477.5L1567 1471Z" fill="#040404"/>
<path d="M1516 1561.5C1513.5 1560.33 1508.3 1558 1507.5 1558L1505.5 1571L1516 1561.5Z" fill="#040404"/>
<path d="M1733 1705.5L1677.5 1639L1574.5 1772.5H1782.5L1758.5 1736L1733 1705.5Z" fill="#040404"/>
<path d="M2417.5 1599.5L2351.5 1537.5L2330 1580.5L2341 1582.5L2315.5 1614L2317.5 1619L2310 1627L2282 1666L2269.5 1688L2417.5 1599.5Z" fill="#040404"/>
<path d="M2631.5 1681L2613 1637L2604 1648.5L2631.5 1681Z" fill="#040404"/>
<path d="M2579.5 1743.5L2558 1718.5L2517.5 1777H2598C2598.33 1775.83 2598.8 1772.9 2598 1770.5C2597.2 1768.1 2585.33 1751.5 2579.5 1743.5Z" fill="#040404"/>
<path d="M3202.5 1628C3205.7 1624 3207.17 1616.33 3207.5 1613L3185 1623L3179.5 1633L3152 1663.5L3184 1648.5L3190.5 1641.5C3188.33 1639.83 3183.8 1635.4 3183 1631C3182 1625.5 3188 1628 3190.5 1631C3193 1634 3198.5 1633 3202.5 1628Z" fill="#040404"/>
<path d="M45.5 1778H863.5L807.5 1733L764 1688C759.5 1683.67 748.6 1673.9 741 1669.5C731.5 1664 663.5 1626.5 649 1617.5C634.5 1608.5 580 1576 575.5 1571C571 1566 494.5 1506 493 1504.5C491.8 1503.3 521.5 1517.67 536.5 1525L587.5 1554L669.5 1591L698.5 1604.5C695.167 1594.17 684 1570.5 666 1558.5C648 1546.5 613.5 1532.17 598.5 1526.5C610.5 1525.83 641.2 1528.7 668 1545.5C694.8 1562.3 728.167 1598.5 741.5 1614.5C776.333 1631.83 841.6 1662.9 824 1648.5C806.4 1634.1 735.667 1576.17 702.5 1549L649 1488L635 1462L637.5 1459.5C648.167 1470.83 671.3 1494.6 678.5 1499C685.7 1503.4 702.833 1514.17 710.5 1519L751 1543.5L780 1558.5L807.5 1578V1574C805.667 1569.33 800.8 1559.1 796 1555.5C791.2 1551.9 780.333 1540 775.5 1534.5L759 1519L748.5 1507L736.5 1503L724.5 1504.5L721 1507L716.5 1509L721 1499C723.167 1497.17 727.8 1493.6 729 1494C730.5 1494.5 734 1486 766.5 1499C792.5 1509.4 855.667 1543 884 1558.5L933 1591L979.5 1625.5L1021 1664L990.5 1619L978.5 1602L920 1574L884 1552.5L859.5 1538L845 1529V1525.5L878 1540.5L917 1558.5L957 1571.5L925 1529L863.5 1455.5L819.5 1412.5L775.5 1374.5L751 1357.5L729 1345L702.5 1337.5H674.5L649 1345H641.5L647.5 1339L656 1335L674.5 1329.5H706L719 1331L733 1333.5L757 1341L786 1351.5L812 1365.5L840.5 1384.5L867.5 1404.5L898.5 1428.5L900 1419.5H903L908.5 1428.5L906 1433C905.333 1434.17 904.1 1436.7 904.5 1437.5C905 1438.5 917.5 1448.5 918.5 1449.5C919.5 1450.5 923.5 1456.5 925.5 1458C927.5 1459.5 933.5 1463 934.5 1464C935.3 1464.8 939.5 1467.67 941.5 1469C943.5 1467.17 948 1463.8 950 1465C952 1466.2 956.167 1468.17 958 1469L963 1476.5L961 1483L958 1487L969.5 1498.5L983 1513.5L994 1525.5L1003.5 1534.5V1529L1007.5 1522H1013L1020.5 1529V1534.5L1018 1540.5C1019.5 1544 1023.1 1552 1025.5 1556C1028.5 1561 1033.5 1571.5 1034.5 1572.5C1035.3 1573.3 1038.83 1578.17 1040.5 1580.5L1044.5 1588C1045.83 1586.5 1048.4 1582.9 1048 1580.5C1047.6 1578.1 1047.83 1576.83 1048 1576.5L1052.5 1578L1054 1582.5L1056 1591L1052.5 1594.5L1055.5 1601L1063.5 1615L1067 1617.5L1067.5 1614.5H1070L1075.5 1618L1078 1620.5L1075.5 1623L1073.5 1625L1090 1637C1097.67 1643.67 1113.5 1657.3 1115.5 1658.5C1117.5 1659.7 1120 1661.33 1121 1662V1656C1121.17 1655.67 1121.6 1655.1 1122 1655.5C1122.4 1655.9 1127.17 1658.67 1129.5 1660L1131 1663.5L1129 1666L1127.5 1668L1138 1680L1144.5 1690.5L1154 1700V1693L1144.5 1668L1120.5 1606.5L1092 1542L1073.5 1513.5L1032.5 1503L997.5 1501L983 1498.5L987 1495L1005 1493L1015.5 1491.5L1031 1490H1044.5H1060L1031 1441.5L976.5 1365.5L921.5 1318L889 1298L867.5 1293.5H850L845.5 1292L857.5 1289.5L882 1288C885.833 1289 894.1 1291.5 896.5 1293.5C898.9 1295.5 906.833 1298 910.5 1299L929 1307L955 1322.5L957 1325L960.5 1322.5L962.5 1320.5L970 1327.5L973 1331L970 1333.5L992 1350.5L996 1353.5V1347H1000L1005 1353.5L1003 1357L1022.5 1377.5L1034.5 1388.5L1037 1391.5V1383.5L1038.5 1380.5L1044.5 1388.5V1395V1400.5L1053 1409L1066.5 1421C1068.33 1423.17 1072.2 1427.8 1073 1429C1074 1430.5 1080.5 1437 1081.5 1438C1082.3 1438.8 1084.17 1442.67 1085 1444.5L1087 1441.5L1085 1433V1429L1090 1427.5L1095.5 1429L1096 1434L1095.5 1438L1098 1439.5L1094.5 1442.5L1093 1447V1452.5L1095.5 1458L1099.5 1462L1103 1466H1107L1110 1471V1474L1114 1475V1478L1118 1481.5H1123C1123.17 1482.17 1123.7 1483.8 1124.5 1485C1125.3 1486.2 1124.83 1489.83 1124.5 1491.5L1128 1495.5L1129.5 1501L1133 1493L1136.5 1488.5L1138 1490L1142 1495.5V1499L1139.5 1505L1136.5 1509.5C1138.83 1511.17 1144 1514.6 1146 1515C1148 1515.4 1150.83 1516.83 1152 1517.5L1158.5 1525L1163 1533L1168.5 1539.5L1171 1546L1175 1549.5L1179 1544L1181 1546L1179 1552L1181 1556L1185 1552L1195 1558.5L1197.5 1537.5L1191.5 1521.5L1188 1509.5V1506.5L1193.5 1513.5C1194.83 1516 1197.5 1520.8 1197.5 1520C1197.5 1519.2 1199.17 1499.67 1200 1490L1207 1468.5V1463.5L1202 1455L1195 1447L1193.5 1438L1200 1436L1204 1442.5L1207 1448.5H1210.5L1215.5 1421L1218 1407.5L1215.5 1401L1218 1399L1219.5 1401L1224.5 1384.5L1230 1361.5V1348L1219.5 1339.5L1213 1332.5V1327L1215.5 1330L1219.5 1332.5L1227 1339.5L1230 1341.5L1236 1322L1238 1294L1231.5 1286V1280L1238 1283C1238.83 1282.67 1240.6 1281.6 1241 1280C1241.4 1278.4 1242.5 1264 1243 1257V1238L1238 1231L1236 1222.5C1236.67 1221.17 1238.3 1218.9 1239.5 1220.5C1240.7 1222.1 1242.33 1224.17 1243 1225L1246.5 1217.5L1252 1200.5V1175.5L1253 1159.5L1252 1143.5V1127L1253 1117.5L1256.5 1110H1259.5L1261 1120L1263 1138L1264.5 1147.5L1269.5 1150.5L1276 1156.5L1273.5 1163.5L1269.5 1165L1271.5 1169.5L1276 1175.5L1273.5 1192.5V1199V1204.5L1276 1213.5L1279.5 1220.5L1284.5 1217.5L1290 1219L1292 1222.5L1290 1228H1288L1285.5 1232L1284.5 1238V1247.5L1288 1243.5L1292 1241.5L1294.5 1243.5V1250.5L1292 1252L1290 1257H1288V1262.5L1290 1280L1292 1277L1294.5 1275L1301.5 1273L1303 1275V1286L1298 1289.5L1296 1296.5V1302L1298 1308V1313.5L1300 1322L1301.5 1324L1306.5 1319.5L1309.5 1324L1313 1332.5L1312 1338.5L1308 1341.5L1306.5 1343.5L1308 1353.5L1309.5 1373.5V1384.5L1313 1373.5L1316 1370.5L1320 1373.5L1323.5 1378L1322.5 1384L1320 1387.5L1316 1392.5L1313 1396.5V1403L1320 1407.5L1318 1413L1316 1417.5V1423.5L1318 1429L1326 1421H1330.5L1333 1415.5V1407.5L1328 1404V1401L1333 1403L1339.5 1407.5L1346.5 1399L1354.5 1392.5L1362 1386L1372 1378C1373.83 1376.5 1377.8 1373.5 1379 1373.5C1380.5 1373.5 1389 1373.5 1391 1373.5C1392.6 1373.5 1395 1374.17 1396 1374.5L1387 1381L1384 1387.5L1391 1386C1391.83 1385.83 1393.4 1385.9 1393 1387.5C1392.6 1389.1 1388.83 1391.5 1387 1392.5L1385 1395.5V1401L1384 1405.5L1391 1403L1387 1407.5L1384 1410L1381 1415.5L1380 1424.5L1379 1429C1379 1430.33 1379.2 1432.8 1380 1432C1380.8 1431.2 1385 1429.67 1387 1429L1377 1442V1452V1455.5L1384 1452L1387 1455.5L1385 1459.5L1379 1466L1375.5 1471V1477.5V1484.5V1489.5L1379 1493.5L1385 1501.5L1387 1495L1388 1485.5L1393 1468L1400 1448L1396 1439.5L1388 1433.5V1423.5H1391L1396 1424.5L1400 1433.5L1403.5 1439.5L1409.5 1421L1413.5 1410L1418 1401L1422 1392.5L1423.5 1387.5L1418 1381V1373.5L1413.5 1367.5L1414.5 1362.5L1418 1365L1423.5 1370.5L1431 1376V1370.5L1432.5 1365L1436 1362.5L1438.5 1353L1444 1350L1449.5 1341.5L1453 1330.5L1457 1324L1453 1321.5L1449.5 1311.5L1447.5 1306.5L1449.5 1303H1453L1459.5 1306.5L1462 1315L1465 1309L1470.5 1303L1473.5 1296L1478.5 1288.5L1486 1276.5L1489.5 1270L1486 1262L1484 1257L1488 1255.5C1490.17 1256.67 1495 1258.9 1497 1258.5C1499 1258.1 1501.83 1253.67 1503 1251.5L1507.5 1245.5L1513 1236.5C1513.5 1235.83 1514 1234 1512 1232C1510 1230 1509.5 1228.17 1509.5 1227.5L1508 1223C1508.33 1222.17 1509.3 1220.6 1510.5 1221C1512 1221.5 1513 1219 1515.5 1221C1518 1223 1519.5 1223.5 1519.5 1224C1519.5 1224.5 1518 1226.5 1519.5 1227.5C1521 1228.5 1522.5 1229.5 1524 1227.5C1525.2 1225.9 1528.17 1222.5 1529.5 1221L1531.5 1215C1532.33 1213.5 1534.1 1210.3 1534.5 1209.5C1535 1208.5 1538.5 1205.5 1540 1205C1541.2 1204.6 1544.5 1201.17 1546 1199.5C1547.83 1198.33 1551.6 1195.9 1552 1195.5C1552.4 1195.1 1554.83 1191 1556 1189C1557 1188.17 1559.1 1186.4 1559.5 1186C1559.9 1185.6 1562 1183.83 1563 1183L1566.5 1176.5L1572 1170L1575 1165.5C1574.33 1164 1573.2 1160.9 1574 1160.5C1575 1160 1578 1156.5 1578.5 1156.5C1578.9 1156.5 1583.33 1156.5 1585.5 1156.5L1587.5 1152L1590 1148L1592.5 1144.5L1595.5 1144C1595.83 1143.67 1596.5 1143.3 1596.5 1144.5C1596.5 1146 1594 1148.5 1594 1149C1594 1149.5 1592.5 1152.5 1592 1154C1591.5 1155.5 1590 1157 1589.5 1158C1589.5 1160.5 1590.5 1162.5 1591 1163C1591.5 1163.5 1592.5 1163.5 1592.5 1165.5C1592.5 1167.5 1592 1170 1592 1171C1592 1172 1592 1173 1591 1174C1590 1175 1585.5 1177 1585.5 1177.5C1585.5 1178 1584.5 1179.5 1583.5 1180.5C1582.7 1181.3 1578.83 1182.5 1577 1183L1574.5 1186.5L1572 1187.5L1568 1192L1564 1197.5L1565 1200.5L1564 1205L1563 1207.5L1559.5 1209V1212V1214.5L1557.5 1218L1556 1221.5L1557.5 1224V1226.5L1555 1231L1553.5 1234L1555 1240.5L1560.5 1238.5L1565 1239.5C1566.33 1240 1568.6 1241.1 1567 1241.5C1565.4 1241.9 1561 1243.33 1559 1244L1558 1246.5L1559 1251L1558 1258L1557 1263L1553.5 1267.5C1552.5 1268.17 1550.4 1269.7 1550 1270.5C1549.6 1271.3 1549.17 1272.83 1549 1273.5C1549.33 1274 1550.2 1274.9 1551 1274.5C1552 1274 1555 1271.5 1556 1271C1556.8 1270.6 1560.33 1269.5 1562 1269L1564.5 1271C1564.83 1271.5 1565.4 1272.6 1565 1273C1564.5 1273.5 1562 1275 1562 1276C1562 1277 1560 1278.5 1559 1279C1558 1279.5 1553.5 1281.5 1553.5 1282C1553.5 1282.4 1552.5 1284.17 1552 1285L1551 1289.5L1553.5 1292V1295.5L1552 1300.5L1553.5 1303.5L1555 1308L1557.5 1307H1564L1567 1310L1568.5 1311.5L1565 1317L1563 1324.5C1562 1325.17 1559.9 1326.7 1559.5 1327.5C1559 1328.5 1556.5 1329.5 1555 1330C1553.8 1330.4 1551.17 1331.5 1550 1332L1553.5 1335L1555 1340L1559 1335L1565 1332L1568.5 1330C1569.5 1329.33 1571.2 1328.4 1570 1330C1568.8 1331.6 1561.5 1341.33 1558 1346L1557 1348.5L1560.5 1357L1563 1362.5C1563 1363.83 1563.4 1366.5 1565 1366.5C1567 1366.5 1570 1366.5 1570 1364.5C1570 1362.9 1569 1358.83 1568.5 1357L1572.5 1354H1578C1578.67 1354.83 1580 1356.9 1580 1358.5C1580 1360.1 1578.67 1363.17 1578 1364.5L1584.5 1362.5C1587.17 1360.67 1592.9 1357 1594.5 1357C1596.1 1357 1599.83 1353.67 1601.5 1352C1603.33 1350.83 1607.4 1348.5 1609 1348.5C1610.6 1348.5 1616 1346.83 1618.5 1346L1619.5 1349.5L1609 1354L1606 1357C1605.17 1357 1603.1 1357.3 1601.5 1358.5C1599.9 1359.7 1594.83 1363 1592.5 1364.5C1592.5 1365.83 1592.1 1368.8 1590.5 1370C1588.5 1371.5 1587.5 1373.5 1586 1374C1584.8 1374.4 1581.5 1376.17 1580 1377V1381.5L1584.5 1380L1580 1385L1576.5 1386.5L1578 1392.5L1582 1401.5L1584.5 1403.5C1584.5 1402.17 1584.5 1399.2 1584.5 1398C1584.5 1396.8 1586.5 1393.83 1587.5 1392.5H1590.5C1591.83 1392.67 1594.5 1393.5 1594.5 1395.5C1594.5 1397.5 1594.5 1400.33 1594.5 1401.5V1406.5L1592.5 1411.5L1590.5 1415V1418.5L1594.5 1423.5C1595.17 1424.33 1596.8 1426.2 1598 1427C1599.5 1428 1601 1431 1602 1431C1602.8 1431 1603.67 1429 1604 1428L1605.5 1426L1607.5 1428C1608 1429 1609.2 1431 1610 1431C1610.8 1431 1613.67 1431 1615 1431L1617.5 1433.5C1617.5 1434.67 1617.5 1437.2 1617.5 1438C1617.5 1438.8 1617.5 1442 1617.5 1443.5V1447.5L1621 1449L1623.5 1451.5L1625 1450L1626 1446L1630 1443.5C1630 1442.33 1630 1439.6 1630 1438C1630 1436.4 1630 1431.33 1630 1429L1627.5 1423.5L1625 1419.5L1623.5 1417.5V1411.5L1623 1403V1392.5L1621 1385L1623.5 1381.5L1625 1385L1626 1388.5L1627.5 1392.5V1395.5L1630 1397L1633.5 1398L1636 1401.5C1636 1402.17 1636 1403.8 1636 1405C1636 1406.5 1636.5 1410 1637 1411.5C1637.5 1413 1638 1416.5 1638.5 1417.5C1638.9 1418.3 1639.67 1422.5 1640 1424.5C1639.83 1425.5 1639.6 1427.6 1640 1428C1640.5 1428.5 1641 1432.5 1641.5 1433.5C1641.9 1434.3 1642.33 1436.17 1642.5 1437V1440L1645.5 1441.5L1649.5 1440H1651C1651.5 1439.67 1652.6 1438.8 1653 1438C1653.5 1437 1654 1434.5 1654.5 1433.5C1654.9 1432.7 1655.33 1429.5 1655.5 1428L1654.5 1419.5V1415H1655.5L1658.5 1421.5C1658.67 1421.17 1659.1 1420.1 1659.5 1418.5C1659.9 1416.9 1659 1409.83 1658.5 1406.5L1657 1395.5V1387.5L1658.5 1376V1368L1659.5 1360L1661 1354L1663 1346V1341L1662 1332L1661 1316.5L1659.5 1307C1659 1304.5 1658 1299.3 1658 1298.5C1658 1297.7 1656.67 1294.17 1656 1292.5L1652.5 1284L1655 1283C1655.33 1284 1656 1286.1 1656 1286.5C1656 1286.9 1657.33 1289.67 1658 1291L1661 1297.5L1664 1305L1666 1313C1665.67 1314.17 1665.2 1316.7 1666 1317.5C1666.8 1318.3 1668 1321.17 1668.5 1322.5L1670 1317.5C1670.33 1316 1671.2 1312.7 1672 1311.5C1672.8 1310.3 1674.67 1304.33 1675.5 1301.5L1676.5 1295.5L1678.5 1292.5L1680 1288.5L1682 1281.5L1683.5 1280H1685C1685 1281 1685 1283.2 1685 1284C1685 1284.8 1684 1292.67 1683.5 1296.5L1682 1304L1680 1314L1678.5 1324.5L1675.5 1340V1346L1674 1349.5V1354L1676.5 1362.5L1678.5 1366.5L1682 1362.5L1683.5 1364.5L1682 1374L1687.5 1370L1693 1366.5L1694 1368L1690 1371.5L1685 1374L1683.5 1377V1379.5L1685 1383.5L1686.5 1387.5L1689 1391.5L1691 1395.5L1693 1397C1694.17 1396.17 1696.6 1394.4 1697 1394C1697.4 1393.6 1699.5 1391.17 1700.5 1390L1703.5 1386.5V1383.5L1700.5 1379.5L1699.5 1374L1698 1366.5L1699.5 1361.5L1701.5 1360H1703.5L1705.5 1366.5L1708 1370L1710.5 1372.5L1711.5 1368C1710.83 1367.17 1709.5 1365.3 1709.5 1364.5C1709.5 1363.7 1709.5 1359.83 1709.5 1358V1353L1708 1350.5H1711.5L1713.5 1354L1714.5 1356L1716.5 1358L1717.5 1353L1719 1347L1722.5 1341L1727 1332C1727.67 1331.17 1729 1329.3 1729 1328.5C1729 1327.5 1729 1322 1729 1321.5C1729 1321.1 1727 1315.67 1726 1313L1727 1309C1727 1308.17 1727 1305.8 1727 1303C1727 1300.2 1726.33 1298.83 1726 1298.5L1727 1292.5C1727.33 1292.17 1728.5 1291.7 1730.5 1292.5C1732.5 1293.3 1734.67 1294.83 1735.5 1295.5V1301.5H1738.5L1741 1295.5V1289.5V1284L1744.5 1278.5L1746 1276L1744.5 1267L1742 1259.5L1741 1255L1744.5 1252H1747.5V1257L1750 1262.5H1752L1754.5 1255L1757 1252L1761 1241.5L1762 1230L1761 1226.5L1759 1224.5V1217V1211.5L1763.5 1210.5C1764.67 1211.33 1767.2 1211.8 1768 1207C1768.8 1202.2 1769.33 1193 1769.5 1189V1178L1768 1161.5V1150L1763.5 1142.5L1759 1133.5L1754.5 1125.5L1750 1119L1744 1115.5C1743 1115.17 1741.3 1113.7 1742.5 1110.5C1743.7 1107.3 1744 1104.17 1744 1103C1745.17 1103.5 1747.6 1104.6 1748 1105C1748.5 1105.5 1754.5 1109 1754.5 1110.5C1754.5 1112 1757.5 1114.5 1759 1115.5C1760.5 1116.5 1765 1121 1765 1122C1765 1123 1766.5 1127 1768 1128.5C1769.2 1129.7 1769.5 1133 1769.5 1134.5L1774.5 1144C1775.83 1147.83 1778.6 1156.1 1779 1158.5C1779.4 1160.9 1781.83 1169.5 1783 1173.5C1784.33 1180.83 1786.9 1196.3 1786.5 1199.5C1786.1 1202.7 1784.67 1221.17 1784 1230C1782.5 1237.67 1779.5 1253.4 1779.5 1255C1779.5 1256.6 1778.5 1264.33 1778 1268C1780.83 1269 1786.5 1271.2 1786.5 1272C1786.5 1272.8 1791.17 1274.67 1793.5 1275.5L1795.5 1277.5L1797 1279C1797.5 1279.33 1798.5 1279.8 1798.5 1279C1798.5 1278.2 1800.83 1273.67 1802 1271.5L1804.5 1264.5C1805.83 1262.33 1808.6 1257.8 1809 1257C1809.5 1256 1811.5 1251 1812 1250.5C1812.4 1250.1 1815.17 1246.33 1816.5 1244.5L1821 1237L1827.5 1229.5L1831.5 1224.5L1835.5 1220.5H1838L1838.5 1222.5C1838 1223.33 1836.9 1225.1 1836.5 1225.5C1836.1 1225.9 1834.33 1228 1833.5 1229L1831 1234L1826.5 1240L1824 1246.5L1819.5 1253.5L1816 1264C1815.5 1266.17 1814.4 1270.8 1814 1272C1813.5 1273.5 1812 1277.5 1812 1279C1812 1280.2 1810.67 1284.83 1810 1287L1809 1291.5L1813 1297L1816 1299H1819.5V1303L1821 1307L1824 1308.5L1826.5 1311L1828 1316L1832 1319.5V1321.5L1835.5 1325L1837.5 1327L1841.5 1331.5L1844 1333V1335.5C1844.33 1336.33 1845 1338.2 1845 1339C1845 1340 1846 1341 1847.5 1342C1849 1343 1849.5 1344 1851 1344.5C1852.2 1344.9 1854.5 1345.67 1855.5 1346L1858.5 1344.5C1858.17 1345.5 1857.5 1347.7 1857.5 1348.5C1857.5 1349.3 1858.17 1352.17 1858.5 1353.5L1861 1356L1863.5 1357C1863.83 1357.67 1864.6 1359.2 1865 1360C1865.4 1360.8 1866.5 1362.33 1867 1363L1868.5 1364.5L1873 1367L1875 1369.5L1876 1372.5C1876.5 1373 1877.5 1374.2 1877.5 1375C1877.5 1375.8 1877.5 1377.67 1877.5 1378.5L1875 1380.5L1877.5 1382.5L1880 1383.5H1882L1884.5 1382.5L1886 1383.5V1386.5L1884.5 1389.5L1886 1394.5L1887.5 1397L1891 1399L1893.5 1400L1898.5 1404.5L1902.5 1409C1903.33 1409.17 1905.2 1409.8 1906 1411C1906.8 1412.2 1908 1413.83 1908.5 1414.5L1907.5 1418V1421L1908.5 1424.5C1909.17 1425.67 1910.8 1428.3 1912 1429.5C1913.5 1431 1914 1431.5 1914.5 1433C1914.9 1434.2 1917 1436.83 1918 1438C1918.5 1438.5 1919.7 1439.8 1920.5 1441C1921.5 1442.5 1924 1445.5 1924.5 1446.5C1924.9 1447.3 1925.67 1448.83 1926 1449.5V1452V1453C1926.67 1453 1928.2 1453 1929 1453C1929.8 1453 1931.67 1454 1932.5 1454.5C1932.83 1454.83 1933.7 1455.7 1934.5 1456.5C1935.3 1457.3 1937.83 1458.83 1939 1459.5L1941 1460.5L1942 1464.5C1942 1465.33 1942 1467.5 1942 1469.5C1942 1471.5 1942 1474.33 1942 1475.5L1945 1479.5C1946.5 1482.33 1949.8 1488.2 1951 1489C1952.2 1489.8 1956.17 1494.67 1958 1497L1962 1502L1964 1497H1966L1971.5 1500.5L1975 1506.5L1976 1513.5L1977.5 1517L1981 1520.5L1983 1524L1986 1525.5C1987.33 1523.67 1990 1519.9 1990 1519.5C1990 1519.1 1993.67 1510.67 1995.5 1506.5L1997 1500.5L1994.5 1491C1993.67 1489.17 1992.1 1485.4 1992.5 1485C1992.9 1484.6 1993.33 1480.5 1993.5 1478.5V1474L1987.5 1469L1982.5 1463.5V1460.5L1985 1459.5L1987 1462.5L1991.5 1464.5C1992.5 1465.67 1994.5 1467.9 1994.5 1467.5C1994.5 1467.1 1994.5 1460 1994.5 1456.5V1448.5L1995.5 1441V1433L1993.5 1428.5L1990 1423L1986 1414.5L1987.5 1412.5L1990.5 1414.5C1991.5 1415.83 1993.7 1418.6 1994.5 1419C1995.3 1419.4 1996.17 1416.17 1996.5 1414.5V1401.5L1998 1391V1383L1993.5 1376L1990 1369L1989 1365H1992C1992.67 1366.17 1994.1 1368.6 1994.5 1369C1994.9 1369.4 1997 1371.5 1998 1372.5L1999.5 1368V1345L1996 1339.5L1993.5 1335.5L1996 1333C1996.5 1333.83 1997.7 1335.5 1998.5 1335.5C1999.3 1335.5 2000.17 1332.83 2000.5 1331.5L1999.5 1323.5L2000.5 1317.5L1998.5 1309.5V1304L1996.5 1295.5L1993.5 1290L1985.5 1284.5L1982 1282L1990.5 1283L1996.5 1286.5L2006 1294C2007 1295.5 2009.1 1298.7 2009.5 1299.5C2010 1300.5 2012.5 1306.5 2013 1308C2013.4 1309.2 2017.5 1314.83 2019.5 1317.5L2021 1323.5L2025.5 1341.5C2025.5 1344.33 2025.5 1350.2 2025.5 1351C2025.5 1351.8 2028.17 1354.33 2029.5 1355.5L2034.5 1354.5H2038L2037 1358.5L2034.5 1361V1374.5L2038 1378L2041.5 1382L2045 1379.5V1376L2041.5 1370.5L2039.5 1366V1362L2043 1361C2043 1360.67 2043 1359.7 2043 1358.5C2043 1357.3 2042 1353.67 2041.5 1352L2039.5 1347.5L2043 1352L2049 1358.5L2052 1364V1368L2053.5 1370.5L2058.5 1366L2064.5 1355.5L2071 1347.5L2077.5 1338.5L2087.5 1327.5L2094.5 1321.5L2099 1319.5L2101 1321.5L2099 1325L2095.5 1327.5L2093 1335L2087.5 1347.5L2082.5 1354.5L2081 1360L2079 1364L2075 1371.5L2070 1379.5V1383H2075L2079 1382V1384.5L2071 1390.5L2070 1394L2068 1398.5V1405L2070 1408L2073 1409L2077.5 1408H2081V1412L2077.5 1413.5L2079 1416.5L2083 1425.5L2084.5 1430.5L2086.5 1433.5L2089.5 1437.5C2090.17 1437.5 2091.7 1437.5 2092.5 1437.5C2093.3 1437.5 2095.83 1436.17 2097 1435.5L2102.5 1438.5L2104.5 1441L2102.5 1443L2098.5 1445L2097 1446.5V1451C2097.5 1451.67 2098.5 1453.3 2098.5 1454.5C2098.5 1455.7 2101.17 1458.67 2102.5 1460L2104.5 1464.5V1467.5L2107.5 1473.5L2111.5 1472L2114 1469.5L2119.5 1472V1475.5L2114 1478L2112.5 1480.5L2110 1482.5L2114 1495L2117 1503L2119.5 1511L2124 1516.5L2128.5 1511C2129.17 1510.33 2130.7 1508.7 2131.5 1507.5C2132.3 1506.3 2132.5 1501.67 2132.5 1499.5L2133.5 1489.5L2136.5 1482.5V1478H2140L2143.5 1482.5V1492.5C2143.5 1494.67 2143.5 1499.4 2143.5 1501C2143.5 1502.6 2143.5 1505 2143.5 1506L2145 1503H2147.5C2148.83 1504 2151.7 1506 2152.5 1506C2153.5 1506 2156.5 1502.5 2157 1501C2157.4 1499.8 2160.5 1490.5 2162 1486L2164.5 1475.5L2161 1469.5L2158 1460L2159.5 1456.5L2162 1459L2167.5 1464.5L2170 1463L2173.5 1451L2175.5 1441L2172 1435.5L2167.5 1428.5L2170 1426.5L2172 1427.5L2175.5 1432.5H2181L2183.5 1425.5L2186.5 1412L2189 1398.5L2192.5 1384.5L2196 1369.5V1364L2189 1355.5V1352L2195 1353.5L2198.5 1355.5L2204.5 1347.5L2208.5 1343.5L2213.5 1347.5L2220.5 1352H2223L2221.5 1358.5L2219.5 1361.5L2223 1364L2234.5 1367L2240.5 1369.5L2249.5 1374.5C2251.67 1376 2256.4 1379.2 2258 1380C2259.6 1380.8 2261.33 1381.67 2262 1382L2267 1376.5C2269 1374.17 2273.3 1369 2274.5 1367C2275.7 1365 2281.67 1355.17 2284.5 1350.5C2286.67 1347.5 2291.2 1341.4 2292 1341C2292.8 1340.6 2296.33 1336.5 2298 1334.5L2310 1324L2316 1320V1324L2310 1327.5L2304.5 1334.5L2298 1342.5L2294 1350.5L2288 1359L2282 1371.5L2279 1376.5V1380H2282V1387L2279 1391.5L2282 1396.5L2290.5 1401L2300 1403.5C2303.33 1400.33 2310 1393.5 2310 1391.5C2310 1389.5 2316.33 1376 2319.5 1369.5C2319.5 1367.33 2319.5 1362.6 2319.5 1361C2319.5 1359.4 2317.17 1353.33 2316 1350.5V1347.5L2319.5 1350.5L2323 1354.5L2327 1347.5L2333.5 1333L2336 1326C2334 1322.67 2329.9 1315.7 2329.5 1314.5C2329.1 1313.3 2327.67 1310 2327 1308.5H2332C2332.83 1310.67 2334.8 1314.6 2336 1313C2337.2 1311.4 2340.17 1303 2341.5 1299V1291.5L2336 1285.5V1279.5L2340 1285.5H2347.5V1273.5L2350.5 1262.5L2352.5 1255.5L2350.5 1245V1238L2352.5 1232.5V1226L2354.5 1219.5L2357.5 1206.5L2359 1191L2364 1180L2366 1184V1191V1202.5V1213.5V1232.5L2368.5 1241V1247L2371.5 1259.5V1262.5V1273.5V1277.5L2375 1279.5L2371.5 1285.5L2375 1291.5L2373.5 1299V1308.5L2371.5 1320L2370 1326L2373.5 1330H2377L2373.5 1344L2370 1350.5L2368.5 1356.5V1364V1371.5V1380L2371.5 1384L2368.5 1390L2367 1396.5V1407L2366 1418V1426.5V1432.5L2368.5 1435.5L2366 1441L2363.5 1450V1459V1463L2370 1469.5L2377 1475.5L2381.5 1478L2384 1467.5H2388L2392 1475.5V1483.5C2392.33 1484.67 2393.1 1487.1 2393.5 1487.5C2394 1488 2397 1491.5 2399 1493C2400.6 1494.2 2405.33 1497.17 2407.5 1498.5L2417.5 1506.5L2425 1511.5V1503L2428.5 1504C2429.83 1506.5 2432.6 1511.5 2433 1511.5C2433.5 1511.5 2434.5 1515.5 2434.5 1516.5C2434.5 1517.3 2434.5 1518.83 2434.5 1519.5L2439.5 1523.5C2445.17 1528.67 2456.8 1539.1 2458 1539.5C2459.5 1540 2467 1545.5 2468.5 1545.5C2470 1545.5 2471 1541.5 2470.5 1540.5C2470.1 1539.7 2469.67 1536.83 2469.5 1535.5C2470 1534.83 2471.3 1533.7 2472.5 1534.5C2473.7 1535.3 2478.33 1540.5 2480.5 1543C2480.83 1544.5 2481.5 1547.9 2481.5 1549.5C2481.5 1551.1 2482.5 1553.83 2483 1555L2491 1562L2497.5 1561C2501.17 1556.83 2508.6 1548.4 2509 1548C2509.4 1547.6 2518.17 1539.5 2522.5 1535.5L2524.5 1536.5L2522.5 1540.5L2516 1549.5L2513 1553.5L2506.5 1561L2503.5 1566L2506.5 1567L2513 1564V1557H2517C2517.17 1558 2518 1559.7 2520 1558.5C2522 1557.3 2526.17 1550.33 2528 1547L2534.5 1535.5L2541 1523.5L2542 1519.5L2534.5 1510L2513 1476.5L2498.5 1451L2477 1407L2466.5 1376L2461 1355.5L2453 1340.5L2444.5 1320.5L2440.5 1310.5L2449 1318.5C2451.17 1322 2455.6 1329.2 2456 1330C2456.5 1331 2464.5 1348 2466.5 1349C2468.1 1349.8 2475.83 1363 2479.5 1369.5L2483 1377.5L2486 1371.5H2488.5V1376L2486 1379.5L2491 1385C2491.5 1386.17 2492.6 1388.8 2493 1390C2493.4 1391.2 2498.17 1398.5 2500.5 1402C2501.33 1402 2503.4 1402 2505 1402C2506.6 1402 2509.67 1396.33 2511 1393.5L2507 1385L2505 1382.5L2514.5 1390L2521 1402C2522.83 1406.33 2526.6 1415.3 2527 1416.5C2527.4 1417.7 2529.83 1423.33 2531 1426L2535.5 1431.5L2539 1435L2543.5 1439.5L2549 1444L2557 1449.5C2557.83 1450.67 2559.7 1453 2560.5 1453C2561.3 1453 2564.5 1454 2566 1454.5L2567.5 1460L2573.5 1463.5L2578.5 1467.5L2582.5 1463.5L2587 1464V1468.5C2586.83 1469.17 2586.4 1470.7 2586 1471.5C2585.6 1472.3 2587.17 1474.5 2588 1475.5L2592 1479L2598 1474.5L2598.5 1468L2597 1450.5L2597.5 1436L2598 1425L2597 1417.5L2598 1409.5L2602 1400.5L2605 1402.5L2610 1405L2615 1405.5L2618 1408.5L2616.5 1415.5L2611.5 1418.5V1422L2613.5 1426V1437L2615 1443V1450.5V1454.5L2624 1449.5L2630 1443C2630.83 1442.67 2632.6 1441.5 2633 1439.5C2633.4 1437.5 2633.17 1423.33 2633 1416.5C2633.17 1415 2633.8 1411.9 2635 1411.5C2636.2 1411.1 2637.83 1412.33 2638.5 1413V1419.5L2639.5 1427L2641.5 1428.5L2643.5 1425L2646 1418.5L2649 1416.5V1421V1423L2656 1418.5C2656.33 1416.17 2656.5 1410.9 2654.5 1408.5C2652 1405.5 2653 1399.5 2654.5 1397.5C2655.7 1395.9 2649.33 1392.5 2646 1391V1387H2650.5C2651.83 1387.83 2654.5 1389 2654.5 1387C2654.5 1384.5 2650 1356 2643.5 1346.5C2638.3 1338.9 2632.33 1330.67 2630 1327.5L2640 1331.5L2663 1355.5H2669.5L2673.5 1360V1366L2679.5 1372.5L2684.5 1377L2688.5 1375V1380L2687 1385L2690 1387L2699 1375L2700.5 1364.5L2707 1357.5L2712 1346.5L2717 1337.5H2721L2723 1329.5L2721 1322.5L2723 1317L2726 1307.5L2730.5 1302.5V1295L2726 1291C2724.33 1289.67 2721 1285.7 2721 1280.5C2721 1275.3 2722.33 1272 2723 1271L2724 1262.5L2726 1259C2726.5 1262.83 2728.1 1271.3 2730.5 1274.5C2733.5 1278.5 2734 1283.5 2735 1286C2736 1288.5 2739.5 1295 2739.5 1296.5C2739.5 1298 2742.5 1304.5 2742 1307.5C2741.5 1310.5 2742 1322.5 2742 1326C2742 1329.5 2742 1343 2742 1344C2742 1345 2739.5 1353.5 2739.5 1355.5C2739.5 1357.1 2737.5 1365.83 2736.5 1370L2733.5 1378.5L2729 1393.5L2724 1409.5L2717 1427C2715.67 1428 2714.6 1429.7 2721 1428.5C2727.4 1427.3 2737.67 1418.67 2742 1414.5L2755 1410.5L2757 1413L2749.5 1418.5L2736.5 1428.5L2738.5 1435C2736.83 1435.33 2733.5 1436.7 2733.5 1439.5C2733.5 1443 2731 1447 2736.5 1452.5C2740.9 1456.9 2744.33 1459 2745.5 1459.5L2747.5 1468.5L2755 1464L2759 1461L2761.5 1464L2757 1471.5C2755.83 1471.83 2753.4 1473.8 2753 1479C2752.5 1485.5 2756.5 1490 2759 1492.5C2761.5 1495 2764.5 1505.5 2766.5 1509C2768.1 1511.8 2772.5 1519.5 2774.5 1523L2778.5 1514L2782 1515.5L2784.5 1514C2785.5 1515 2787.2 1517.6 2786 1520C2784.8 1522.4 2782.83 1527.33 2782 1529.5L2778.5 1534.5C2781.5 1538.5 2787.8 1547.1 2789 1549.5C2790.2 1551.9 2792.5 1561.83 2793.5 1566.5L2797.5 1574.5L2807.5 1566.5L2810.5 1572L2805.5 1577C2804.83 1578 2803.9 1580.9 2805.5 1584.5C2807.1 1588.1 2812.17 1603.33 2814.5 1610.5L2819 1615.5V1601C2817.67 1595.5 2815.4 1584 2817 1582C2818.6 1580 2819 1586.17 2819 1589.5C2820.5 1587.5 2824.1 1580.1 2826.5 1566.5C2828.9 1552.9 2830.17 1547.17 2830.5 1546L2836.5 1563C2837 1567.67 2838.2 1577 2839 1577C2839.8 1577 2843.33 1585.33 2845 1589.5L2850.5 1598L2861.5 1610.5V1569V1557L2850.5 1549.5L2861.5 1551.5V1502.5L2850.5 1485.5L2861.5 1490L2864.5 1452.5L2855.5 1443L2864.5 1446L2867 1418.5L2859 1409.5L2867 1410.5C2865.33 1395.17 2862.5 1363.6 2864.5 1360C2866.5 1356.4 2870.67 1375.17 2872.5 1385L2881 1400L2883.5 1409.5L2887.5 1418.5H2891.5L2898.5 1414.5V1418.5C2895.67 1420.33 2890.5 1424.8 2892.5 1428C2894.5 1431.2 2898.33 1445.67 2900 1452.5L2907 1450.5H2911.5L2904 1456.5V1462.5L2908 1474L2912.5 1484.5C2914.17 1477.17 2918.3 1461.3 2921.5 1456.5C2924.7 1451.7 2929.17 1451.83 2931 1452.5L2933 1458.5L2930 1468.5C2928.5 1470.83 2925.7 1476.4 2926.5 1480C2927.3 1483.6 2926.83 1489.5 2926.5 1492C2924.17 1497.83 2919.9 1509.7 2921.5 1510.5C2923.5 1511.5 2924.5 1522 2930 1517C2934.4 1513 2940.5 1502.67 2943 1498L2936 1490C2933.67 1488.83 2930.4 1486.3 2936 1485.5C2943 1484.5 2941 1483 2938.5 1481.5C2936 1480 2933.5 1475 2936 1475.5C2938 1475.9 2941.5 1479.67 2943 1481.5H2947.5C2949.33 1477.17 2953.1 1467.9 2953.5 1465.5C2953.9 1463.1 2958.67 1446.83 2961 1439L2950 1423L2952.5 1419.5L2961 1428C2962 1429.17 2964.3 1429.8 2965.5 1423C2967 1414.5 2963.5 1410.5 2965.5 1408C2967.5 1405.5 2979 1392.5 2977 1390C2975.4 1388 2970.33 1379.5 2968 1375.5L2970 1374C2973.67 1376.33 2981.1 1380.8 2981.5 1380C2981.9 1379.2 2993.33 1351.67 2999 1338L2988 1321L3002 1330.5L3018.5 1297L3013.5 1286.5L3022.5 1291.5L3047.5 1245C3050.67 1240.5 3057.3 1231.4 3058.5 1231C3059.7 1230.6 3067 1227.17 3070.5 1225.5H3074C3070 1226.17 3061.3 1230.2 3058.5 1241C3055 1254.5 3047.5 1272.5 3049.5 1303.5C3051.1 1328.3 3052.5 1332.83 3053 1332C3055 1330.83 3061.3 1326 3070.5 1316C3082 1303.5 3091 1289.5 3094.5 1283C3098 1276.5 3103.5 1269.5 3107.5 1271C3111.5 1272.5 3114 1258 3113.5 1254.5C3113.1 1251.7 3116 1244.33 3117.5 1241C3119 1241 3121.7 1242.2 3120.5 1247C3119 1253 3117.5 1268 3115.5 1269.5C3113.5 1271 3110.5 1277.5 3110 1279.5C3109.6 1281.1 3105.5 1291.83 3103.5 1297L3099 1306L3094.5 1321C3094.67 1326 3094.4 1336.4 3092 1338C3089 1340 3083 1346 3084 1348C3085 1350 3089.5 1353.5 3092 1348C3094.5 1342.5 3097 1337 3103.5 1332C3108.7 1328 3117 1316.67 3120.5 1311.5C3122.17 1308 3126.2 1301 3129 1301C3132.5 1301 3135.5 1304 3134 1306C3132.5 1308 3127.5 1316 3126.5 1318.5C3125.7 1320.5 3120.17 1334.33 3117.5 1341L3115.5 1352L3119.5 1354.5L3105 1369.5C3102.5 1373.17 3098.1 1380.6 3100.5 1381C3102.9 1381.4 3107.83 1380.17 3110 1379.5C3108.17 1381.83 3103.5 1387.3 3099.5 1390.5C3094.5 1394.5 3087 1403.5 3092 1403C3097 1402.5 3099.5 1400.5 3099.5 1401C3099.5 1401.4 3091.17 1412.83 3087 1418.5L3081 1428L3076.5 1440.5C3072.83 1444.5 3067.5 1452.4 3075.5 1452C3085.5 1451.5 3093 1444 3093 1443C3093 1442 3092.5 1438.5 3094.5 1435C3096.5 1431.5 3103.5 1430.5 3104 1428C3104.5 1425.5 3100.5 1418.5 3101.5 1417C3102.3 1415.8 3102.83 1414.5 3103 1414L3111 1422.5C3112.83 1417.33 3117.3 1406.2 3120.5 1403C3124.5 1399 3131 1400.5 3130.5 1397C3130 1393.5 3126 1392.5 3129.5 1390.5C3133 1388.5 3142 1384 3140 1381C3138 1378 3129.5 1366 3134 1366.5C3138.5 1367 3150 1374 3147.5 1375C3145.5 1375.8 3153.67 1366 3158 1361C3159.17 1357.33 3161.8 1349.8 3163 1349C3164.2 1348.2 3165.5 1346.67 3166 1346L3164.5 1341L3171 1335.5L3168 1331H3171V1324C3174.83 1323.67 3183.9 1322.1 3189.5 1318.5C3195.1 1314.9 3203.5 1307.33 3207 1304L3216.5 1292.5C3218.83 1290.67 3223.2 1286.6 3222 1285C3220.8 1283.4 3223.5 1281.33 3225 1280.5H3231.5C3230.67 1281.67 3229.5 1284.4 3231.5 1286C3233.5 1287.6 3235 1289.67 3235.5 1290.5V1296.5L3227.5 1301L3222 1307.5L3219.5 1313L3216.5 1316.5L3212.5 1322L3208.5 1327.5V1330.5C3209 1331.5 3209.6 1333.7 3208 1334.5C3206.4 1335.3 3205.33 1338.17 3205 1339.5C3204.33 1339.83 3202.5 1340.5 3200.5 1340.5C3198 1340.5 3196.5 1341 3198 1343C3199.5 1345 3201.5 1344.5 3201.5 1346.5C3201.5 1348.5 3200 1353 3199 1354C3198 1355 3193.5 1358 3192 1358C3190.5 1358 3188.5 1358.5 3188 1361.5C3187.5 1364.5 3186 1366 3188 1367C3190 1368 3193.5 1366 3195 1368C3196.5 1370 3202 1374 3198 1374C3194 1374 3183 1372.5 3182.5 1376C3182 1379.5 3177.5 1387.5 3177 1389.5C3176.6 1391.1 3171.83 1399.83 3169.5 1404C3171.67 1403.5 3176.1 1402.9 3176.5 1404.5C3177 1406.5 3175.5 1407 3174.5 1407.5C3173.5 1408 3168 1408.5 3168 1410.5C3168 1412.1 3162.33 1424.17 3159.5 1430L3123.5 1520H3128C3125.67 1521.5 3120.9 1525 3120.5 1527C3120.1 1529 3109.67 1557.5 3104.5 1571.5C3105.5 1572.17 3107.2 1574 3106 1576C3104.8 1578 3102.17 1581.17 3101 1582.5C3100.33 1583.67 3099 1586.6 3099 1589C3099 1591.4 3102.67 1590 3104.5 1589C3104.5 1590.5 3104.5 1593.7 3104.5 1594.5C3104.5 1595.5 3095.5 1601.5 3095 1604C3094.6 1606 3092.5 1608.5 3091.5 1609.5L3086.5 1628L3076 1668.5L3073.5 1681L3104.5 1650.5C3103.5 1647 3101.8 1639.3 3103 1636.5C3104.5 1633 3109 1628 3110 1628C3111 1628 3105 1638 3107.5 1641.5C3109.5 1644.3 3111 1642.67 3111.5 1641.5C3119.67 1636.33 3136.1 1625.4 3136.5 1623C3137 1620 3139 1608 3143 1606C3146.2 1604.4 3148 1602.67 3148.5 1602L3143 1613C3142.83 1614 3143.1 1615.7 3145.5 1614.5C3147.9 1613.3 3163.83 1600.67 3171.5 1594.5C3171.67 1591.33 3172.6 1584.5 3175 1582.5C3177.4 1580.5 3179.33 1580.67 3180 1581C3177.83 1584.17 3174.3 1590.5 3177.5 1590.5C3180.7 1590.5 3195.5 1582.17 3202.5 1578C3202.17 1574.83 3202 1568.2 3204 1567C3206 1565.8 3208.17 1564.17 3209 1563.5L3207.5 1569.5C3206.17 1572 3204.3 1576.8 3207.5 1576C3211.5 1575 3228.5 1571.5 3230 1571.5C3231.5 1571.5 3238 1562 3237.5 1550.5C3237 1539 3239.5 1533 3241.5 1528.5C3243.1 1524.9 3242.17 1518.33 3241.5 1515.5L3245.5 1509.5C3246.83 1508.17 3250.1 1503.7 3252.5 1496.5C3255.5 1487.5 3263 1474 3264.5 1473.5C3265.7 1473.1 3268.67 1470.33 3270 1469L3272.5 1471C3270.67 1473.17 3267 1478.2 3267 1481C3267 1484.5 3264.5 1488.5 3264.5 1490C3264.5 1491.5 3263.5 1498.5 3263 1499.5C3262.6 1500.3 3261.83 1503.83 3261.5 1505.5C3260 1508.17 3257 1514.6 3257 1519C3257 1524.5 3257.5 1528.5 3259.5 1530.5C3261.5 1532.5 3259.5 1540 3259.5 1540.5C3259.5 1541 3262 1542.5 3259.5 1546.5C3257.5 1549.7 3258.67 1559.17 3259.5 1563.5L3261.5 1565L3282 1558.5L3300 1554L3326 1556C3304 1561.83 3260.3 1574.4 3261.5 1578C3263 1582.5 3264.5 1583.5 3264.5 1585C3264.5 1586.2 3262.5 1589.17 3261.5 1590.5C3259.17 1595.5 3255.5 1605.3 3259.5 1604.5C3264.5 1603.5 3297.5 1584 3300 1581C3302.5 1578 3299.5 1572 3302 1569.5C3304 1567.5 3306.83 1567 3308 1567V1578L3317 1573C3316.67 1571.67 3316.7 1568.6 3319.5 1567C3323 1565 3327 1570.5 3329.5 1567C3332 1563.5 3332 1558.5 3336.5 1558.5C3341 1558.5 3355 1552.5 3355 1550.5C3355 1548.5 3359.5 1538 3361 1538C3362.5 1538 3359 1549.5 3363 1548C3367 1546.5 3399.5 1530.5 3401 1527.5C3402.5 1524.5 3404.5 1512 3406 1511.5C3407.5 1511 3410.5 1513 3410.5 1519.5C3410.5 1526 3411 1523.5 3419.5 1517.5C3428 1511.5 3440 1504.5 3442 1503C3444 1501.5 3448 1489 3449 1489.5C3450 1490 3449 1501.5 3457 1498C3463.4 1495.2 3474 1483.17 3478.5 1477.5L3480 1472V1477.5C3487.33 1470 3502.1 1455.1 3502.5 1455.5C3502.9 1455.9 3516.33 1449 3523 1445.5L3555.5 1435L3570.5 1431.5L3523 1454L3502.5 1472L3496 1481.5C3507 1474.83 3530.7 1461.3 3537.5 1460.5C3544.3 1459.7 3562.33 1458.5 3570.5 1458L3557.5 1464L3539 1470L3517 1480L3491 1502L3469.5 1527.5L3457 1540C3469.17 1544 3493.5 1552.2 3493.5 1553C3493.5 1553.8 3495.17 1556 3496 1557C3488.83 1554.33 3472.6 1549 3465 1549C3457.4 1549 3453.17 1548.33 3452 1548L3401 1604L3300.5 1702.5L3236.5 1760L3228.5 1776.5H4144.5L4148.5 0.5H1L20.5 1778.5L45.5 1778ZM1549 1417.5L1567 1471L1557 1477.5L1557.5 1485.5L1567 1495C1563.33 1497.83 1556 1504.5 1556 1508.5C1556 1512.5 1551.33 1505.5 1549 1501.5C1546.33 1499.17 1540.9 1495.9 1540.5 1501.5C1540.1 1507.1 1537 1514.83 1535.5 1518L1546 1528.5L1529.5 1547C1524.5 1543.33 1514.6 1535.1 1515 1531.5C1515.5 1527 1514.5 1513.5 1525 1507.5C1533.4 1502.7 1532.5 1496.5 1531 1494L1525 1477.5C1524 1475.33 1522.9 1470.7 1526.5 1469.5C1531 1468 1535.5 1465.5 1535.5 1461C1535.5 1456.5 1531 1458.5 1538.5 1451.5C1546 1444.5 1551 1439.5 1550 1436.5C1549.2 1434.1 1542 1433.17 1538.5 1433L1549 1417.5ZM1507.5 1558C1508.3 1558 1513.5 1560.33 1516 1561.5L1505.5 1571L1507.5 1558ZM1677.5 1639L1733 1705.5L1758.5 1736L1782.5 1772.5H1574.5L1677.5 1639ZM2351.5 1537.5L2417.5 1599.5L2269.5 1688L2282 1666L2310 1627L2317.5 1619L2315.5 1614L2341 1582.5L2330 1580.5L2351.5 1537.5ZM2613 1637L2631.5 1681L2604 1648.5L2613 1637ZM2558 1718.5L2579.5 1743.5C2585.33 1751.5 2597.2 1768.1 2598 1770.5C2598.8 1772.9 2598.33 1775.83 2598 1777H2517.5L2558 1718.5ZM3207.5 1613C3207.17 1616.33 3205.7 1624 3202.5 1628C3198.5 1633 3193 1634 3190.5 1631C3188 1628 3182 1625.5 3183 1631C3183.8 1635.4 3188.33 1639.83 3190.5 1641.5L3184 1648.5L3152 1663.5L3179.5 1633L3185 1623L3207.5 1613Z" stroke="black"/>
<path d="M1796.5 1287.5L1778.5 1273.5H1775L1760 1328L1778.5 1343L1796.5 1287.5Z" fill="black"/>
<path d="M1772 1361.5C1767.67 1353.33 1758.9 1336.7 1758.5 1335.5L1757 1333C1752.17 1348.17 1742.4 1378.8 1742 1380C1741.5 1381.5 1734 1407 1731 1413.5C1728.6 1418.7 1724.67 1430 1723 1435L1724 1436.5C1725.5 1437.17 1728.8 1438.5 1730 1438.5C1731.5 1438.5 1730.5 1433.5 1730 1431.5C1729.5 1429.5 1733 1430 1734 1430.5C1735 1431 1735 1434 1736 1435C1737 1436 1738 1430 1740.5 1428.5C1743 1427 1742 1420.5 1741.5 1418.5C1741 1416.5 1745.5 1409.5 1747 1409.5C1748.5 1409.5 1746.5 1415.5 1748 1414.5C1749.2 1413.7 1754.5 1396.83 1757 1388.5C1757.17 1386.33 1757.3 1381.6 1756.5 1380C1755.5 1378 1757 1376.5 1758.5 1376.5C1760 1376.5 1762 1381.5 1761.5 1378.5C1761.1 1376.1 1768.33 1366.17 1772 1361.5Z" fill="black"/>
<path d="M1843.5 1376.5C1844.3 1374.9 1820.17 1325.83 1808 1301.5L1805.5 1299.5V1305C1805.5 1306.67 1805.7 1310.6 1806.5 1313C1807.3 1315.4 1801.83 1337 1799 1347.5C1798.17 1351 1796.4 1358.4 1796 1360C1795.6 1361.6 1795.5 1363.67 1795.5 1364.5L1800 1366L1807 1370.5C1808.83 1371.5 1812.9 1373.7 1814.5 1374.5C1816.5 1375.5 1815.5 1376.5 1815 1379.5C1814.6 1381.9 1815.83 1384.17 1816.5 1385L1820.5 1380.5C1821.67 1381.17 1824.2 1382.6 1825 1383C1826 1383.5 1828.5 1389.5 1829 1391C1829.4 1392.2 1827.5 1393.17 1826.5 1393.5L1825 1396L1835.5 1404.5L1845 1417.5L1846.5 1413L1853 1409.5L1856 1417.5L1853 1426C1856 1428.5 1862.3 1433.9 1863.5 1435.5C1864.7 1437.1 1869.67 1445.17 1872 1449L1877 1451.5C1865.5 1427.17 1842.7 1378.1 1843.5 1376.5Z" fill="black"/>
<path d="M1798 1413L1787 1393.5L1786 1391L1782.5 1406C1780.17 1412.5 1775.3 1425.6 1774.5 1426C1773.7 1426.4 1769.83 1438.83 1768 1445L1764 1454.5C1763.67 1457.83 1762.7 1464.9 1761.5 1466.5C1760.3 1468.1 1759.33 1471.17 1759 1472.5C1760.33 1474.67 1763 1479.3 1763 1480.5C1763 1482 1764.5 1487 1770 1489C1775.5 1491 1772.5 1489.5 1773.5 1489C1774.5 1488.5 1775.5 1483.5 1775.5 1482C1775.5 1480.5 1780 1482.5 1779.5 1483.5C1779 1484.5 1781 1485.5 1782.5 1486C1784 1486.5 1784 1489.5 1786 1492C1788 1494.5 1786 1495 1784 1497C1782.4 1498.6 1782.33 1499.33 1782.5 1499.5C1784 1502.33 1787.3 1508.3 1788.5 1509.5C1790 1511 1802.5 1522.5 1803 1524C1803.5 1525.5 1812.5 1532 1814.5 1533C1816.5 1534 1813.5 1530 1812.5 1528.5C1811.7 1527.3 1814.5 1524 1816 1522.5C1818 1522.5 1821.9 1522.8 1821.5 1524C1821 1525.5 1823 1528 1824 1528.5C1825 1529 1827.5 1533.5 1826.5 1535.5C1825.5 1537.5 1826.5 1537.5 1829 1538.5C1831.5 1539.5 1829 1545 1826.5 1547.5C1824 1550 1829 1549 1831 1547.5C1833 1546 1834.5 1548.5 1838 1551C1841.5 1553.5 1838.5 1557 1839 1559C1839.4 1560.6 1842.5 1558.33 1844 1557C1846.17 1557.67 1851.4 1559.6 1855 1562C1859.5 1565 1856 1574.5 1856 1576C1856 1577.5 1857 1571.5 1857.5 1570C1858 1568.5 1861.5 1566.5 1863.5 1565.5C1865.5 1564.5 1866.5 1568 1866.5 1569V1574.5C1866.5 1575.5 1867 1583.5 1866.5 1586.5C1866 1589.5 1875.5 1600.5 1878.5 1600C1880.9 1599.6 1886.83 1610.83 1889.5 1616.5L1899 1636L1903 1625.5L1852.5 1526C1841.5 1505.33 1819.4 1463.7 1819 1462.5C1818.6 1461.3 1811.17 1444 1807.5 1435.5L1798 1413Z" fill="black"/>
<path d="M2244 1394L2215.5 1372.5H2213.5L2215.5 1375.5C2215 1379.5 2213.9 1387.9 2213.5 1389.5C2213.1 1391.1 2210.33 1393.17 2209 1394L2211 1401L2209 1412.5C2207.33 1418 2204 1429.4 2204 1431C2204 1432.6 2203.33 1442.33 2203 1447L2201 1464V1481L2204 1478L2211 1474H2214.5L2217 1468.5L2211 1464L2207.5 1459.5L2209 1455L2213.5 1456L2218 1459.5L2219 1452.5L2222 1446L2227 1444L2224.5 1441L2225.5 1439L2229.5 1437.5V1432.5H2232V1429L2231 1425L2232 1419L2235.5 1416H2240L2237.5 1412.5L2240 1407L2245.5 1404.5L2247.5 1401L2244 1394Z" fill="black"/>
<path d="M2278 1441L2261.5 1421L2253.5 1439L2247.5 1466C2246.33 1472.67 2243.8 1486.3 2243 1487.5C2242.2 1488.7 2241.33 1496.33 2241 1500H2243L2249.5 1478L2253.5 1481C2256.17 1478.17 2261.8 1471.9 2263 1469.5C2264.5 1466.5 2269 1461.5 2269 1459.5C2269 1457.9 2268 1452.5 2267.5 1450V1439L2269 1437.5L2275.5 1444L2278 1441Z" fill="black"/>
<path d="M1796.5 1287.5L1778.5 1273.5H1775L1760 1328L1778.5 1343L1796.5 1287.5Z" stroke="black"/>
<path d="M1772 1361.5C1767.67 1353.33 1758.9 1336.7 1758.5 1335.5L1757 1333C1752.17 1348.17 1742.4 1378.8 1742 1380C1741.5 1381.5 1734 1407 1731 1413.5C1728.6 1418.7 1724.67 1430 1723 1435L1724 1436.5C1725.5 1437.17 1728.8 1438.5 1730 1438.5C1731.5 1438.5 1730.5 1433.5 1730 1431.5C1729.5 1429.5 1733 1430 1734 1430.5C1735 1431 1735 1434 1736 1435C1737 1436 1738 1430 1740.5 1428.5C1743 1427 1742 1420.5 1741.5 1418.5C1741 1416.5 1745.5 1409.5 1747 1409.5C1748.5 1409.5 1746.5 1415.5 1748 1414.5C1749.2 1413.7 1754.5 1396.83 1757 1388.5C1757.17 1386.33 1757.3 1381.6 1756.5 1380C1755.5 1378 1757 1376.5 1758.5 1376.5C1760 1376.5 1762 1381.5 1761.5 1378.5C1761.1 1376.1 1768.33 1366.17 1772 1361.5Z" stroke="black"/>
<path d="M1843.5 1376.5C1844.3 1374.9 1820.17 1325.83 1808 1301.5L1805.5 1299.5V1305C1805.5 1306.67 1805.7 1310.6 1806.5 1313C1807.3 1315.4 1801.83 1337 1799 1347.5C1798.17 1351 1796.4 1358.4 1796 1360C1795.6 1361.6 1795.5 1363.67 1795.5 1364.5L1800 1366L1807 1370.5C1808.83 1371.5 1812.9 1373.7 1814.5 1374.5C1816.5 1375.5 1815.5 1376.5 1815 1379.5C1814.6 1381.9 1815.83 1384.17 1816.5 1385L1820.5 1380.5C1821.67 1381.17 1824.2 1382.6 1825 1383C1826 1383.5 1828.5 1389.5 1829 1391C1829.4 1392.2 1827.5 1393.17 1826.5 1393.5L1825 1396L1835.5 1404.5L1845 1417.5L1846.5 1413L1853 1409.5L1856 1417.5L1853 1426C1856 1428.5 1862.3 1433.9 1863.5 1435.5C1864.7 1437.1 1869.67 1445.17 1872 1449L1877 1451.5C1865.5 1427.17 1842.7 1378.1 1843.5 1376.5Z" stroke="black"/>
<path d="M1798 1413L1787 1393.5L1786 1391L1782.5 1406C1780.17 1412.5 1775.3 1425.6 1774.5 1426C1773.7 1426.4 1769.83 1438.83 1768 1445L1764 1454.5C1763.67 1457.83 1762.7 1464.9 1761.5 1466.5C1760.3 1468.1 1759.33 1471.17 1759 1472.5C1760.33 1474.67 1763 1479.3 1763 1480.5C1763 1482 1764.5 1487 1770 1489C1775.5 1491 1772.5 1489.5 1773.5 1489C1774.5 1488.5 1775.5 1483.5 1775.5 1482C1775.5 1480.5 1780 1482.5 1779.5 1483.5C1779 1484.5 1781 1485.5 1782.5 1486C1784 1486.5 1784 1489.5 1786 1492C1788 1494.5 1786 1495 1784 1497C1782.4 1498.6 1782.33 1499.33 1782.5 1499.5C1784 1502.33 1787.3 1508.3 1788.5 1509.5C1790 1511 1802.5 1522.5 1803 1524C1803.5 1525.5 1812.5 1532 1814.5 1533C1816.5 1534 1813.5 1530 1812.5 1528.5C1811.7 1527.3 1814.5 1524 1816 1522.5C1818 1522.5 1821.9 1522.8 1821.5 1524C1821 1525.5 1823 1528 1824 1528.5C1825 1529 1827.5 1533.5 1826.5 1535.5C1825.5 1537.5 1826.5 1537.5 1829 1538.5C1831.5 1539.5 1829 1545 1826.5 1547.5C1824 1550 1829 1549 1831 1547.5C1833 1546 1834.5 1548.5 1838 1551C1841.5 1553.5 1838.5 1557 1839 1559C1839.4 1560.6 1842.5 1558.33 1844 1557C1846.17 1557.67 1851.4 1559.6 1855 1562C1859.5 1565 1856 1574.5 1856 1576C1856 1577.5 1857 1571.5 1857.5 1570C1858 1568.5 1861.5 1566.5 1863.5 1565.5C1865.5 1564.5 1866.5 1568 1866.5 1569V1574.5C1866.5 1575.5 1867 1583.5 1866.5 1586.5C1866 1589.5 1875.5 1600.5 1878.5 1600C1880.9 1599.6 1886.83 1610.83 1889.5 1616.5L1899 1636L1903 1625.5L1852.5 1526C1841.5 1505.33 1819.4 1463.7 1819 1462.5C1818.6 1461.3 1811.17 1444 1807.5 1435.5L1798 1413Z" stroke="black"/>
<path d="M2244 1394L2215.5 1372.5H2213.5L2215.5 1375.5C2215 1379.5 2213.9 1387.9 2213.5 1389.5C2213.1 1391.1 2210.33 1393.17 2209 1394L2211 1401L2209 1412.5C2207.33 1418 2204 1429.4 2204 1431C2204 1432.6 2203.33 1442.33 2203 1447L2201 1464V1481L2204 1478L2211 1474H2214.5L2217 1468.5L2211 1464L2207.5 1459.5L2209 1455L2213.5 1456L2218 1459.5L2219 1452.5L2222 1446L2227 1444L2224.5 1441L2225.5 1439L2229.5 1437.5V1432.5H2232V1429L2231 1425L2232 1419L2235.5 1416H2240L2237.5 1412.5L2240 1407L2245.5 1404.5L2247.5 1401L2244 1394Z" stroke="black"/>
<path d="M2278 1441L2261.5 1421L2253.5 1439L2247.5 1466C2246.33 1472.67 2243.8 1486.3 2243 1487.5C2242.2 1488.7 2241.33 1496.33 2241 1500H2243L2249.5 1478L2253.5 1481C2256.17 1478.17 2261.8 1471.9 2263 1469.5C2264.5 1466.5 2269 1461.5 2269 1459.5C2269 1457.9 2268 1452.5 2267.5 1450V1439L2269 1437.5L2275.5 1444L2278 1441Z" stroke="black"/>
</svg>
